<svg xmlns="http://www.w3.org/2000/svg" xmlns:xlink="http://www.w3.org/1999/xlink" width="500" zoomAndPan="magnify" viewBox="0 0 375 374.999991" height="500" preserveAspectRatio="xMidYMid meet" version="1.0"><defs><g><g id="id1"/></g><clipPath id="id2"><path d="M 188 88.6875 L 231 88.6875 L 231 216.1875 L 188 216.1875 Z M 188 88.6875 " clip-rule="nonzero"/></clipPath><clipPath id="id3"><path d="M 143.578125 88.6875 L 185 88.6875 L 185 197 L 143.578125 197 Z M 143.578125 88.6875 " clip-rule="nonzero"/></clipPath></defs><path fill="rgb(0%, 0%, 0%)" d="M 193.21875 128.699219 L 193.769531 128.246094 L 193.769531 119.695312 L 199.507812 119.695312 L 199.507812 124.285156 C 199.605469 124.226562 199.707031 124.171875 199.804688 124.117188 C 202.4375 122.609375 205.203125 121.335938 208.074219 120.378906 L 208.074219 112.660156 L 199.921875 108.945312 L 195.070312 111.152344 L 191.765625 112.660156 L 191.765625 129.964844 L 191.945312 129.785156 C 192.34375 129.394531 192.796875 129.066406 193.21875 128.699219 Z M 193.21875 128.699219 " fill-opacity="1" fill-rule="nonzero"/><path fill="rgb(0%, 0%, 0%)" d="M 208.691406 134 C 207.460938 134.691406 206.269531 135.4375 205.136719 136.28125 L 204.28125 136.910156 C 204.003906 137.117188 203.824219 137.285156 203.53125 137.546875 L 201.949219 138.945312 L 200.152344 140.84375 C 199.914062 141.105469 199.667969 141.425781 199.402344 141.777344 L 198.976562 142.328125 C 198.84375 142.484375 198.734375 142.652344 198.613281 142.816406 C 197.820312 143.917969 197.117188 145.089844 196.480469 146.285156 C 197.164062 147 197.820312 147.742188 198.453125 148.503906 C 198.519531 148.371094 198.566406 148.234375 198.640625 148.101562 C 199.371094 146.738281 200.214844 145.460938 201.160156 144.25 C 201.28125 144.097656 201.40625 143.929688 201.535156 143.785156 L 201.863281 143.386719 C 202.097656 143.101562 202.351562 142.785156 202.660156 142.46875 L 204.238281 140.921875 L 204.289062 140.871094 L 204.308594 140.855469 L 205.699219 139.726562 C 205.914062 139.554688 206.21875 139.296875 206.484375 139.121094 L 207.261719 138.613281 C 208.28125 137.925781 209.375 137.3125 210.480469 136.757812 C 212.691406 135.648438 215.089844 134.867188 217.5 134.410156 C 219.683594 133.996094 221.886719 133.789062 224.117188 133.863281 C 224.457031 132.605469 224.738281 131.320312 224.953125 130.011719 C 222.152344 129.953125 219.292969 130.316406 216.554688 130.953125 C 213.789062 131.601562 211.15625 132.628906 208.691406 134 Z M 208.691406 134 " fill-opacity="1" fill-rule="nonzero"/><path fill="rgb(0%, 0%, 0%)" d="M 213.09375 126.257812 C 209.527344 127.296875 206.148438 128.921875 203.050781 130.960938 C 202.65625 131.222656 202.296875 131.460938 201.917969 131.742188 L 200.769531 132.570312 C 200.394531 132.847656 200.101562 133.09375 199.746094 133.414062 L 198.691406 134.339844 C 198.621094 134.40625 198.546875 134.46875 198.472656 134.53125 C 198.195312 134.773438 197.910156 135.011719 197.652344 135.277344 L 196.6875 136.296875 L 195.730469 137.300781 C 195.453125 137.605469 195.175781 137.945312 194.894531 138.316406 C 193.875 139.585938 192.96875 140.917969 192.144531 142.292969 C 192.539062 142.609375 192.933594 142.933594 193.316406 143.261719 C 193.609375 143.515625 193.894531 143.78125 194.179688 144.039062 C 194.820312 142.996094 195.5 141.980469 196.25 141.019531 C 196.402344 140.828125 196.546875 140.628906 196.707031 140.453125 L 197.113281 139.960938 C 197.398438 139.613281 197.710938 139.234375 198.082031 138.855469 L 200 136.964844 L 200.0625 136.902344 L 200.09375 136.878906 L 201.785156 135.503906 C 202.042969 135.292969 202.421875 134.984375 202.738281 134.773438 L 203.679688 134.148438 C 204.925781 133.3125 206.253906 132.566406 207.601562 131.898438 C 210.300781 130.554688 213.214844 129.601562 216.148438 129.042969 C 219.097656 128.488281 222.070312 128.234375 225.078125 128.425781 C 225.113281 128.429688 225.140625 128.433594 225.175781 128.4375 C 225.324219 127.199219 225.417969 125.945312 225.449219 124.671875 C 225.011719 124.65625 224.574219 124.625 224.136719 124.625 C 220.414062 124.671875 216.664062 125.226562 213.09375 126.257812 Z M 213.09375 126.257812 " fill-opacity="1" fill-rule="nonzero"/><path fill="rgb(0%, 0%, 0%)" d="M 214.800781 148.710938 C 214.644531 148.820312 214.5625 148.886719 214.46875 148.988281 L 213.628906 149.734375 L 212.824219 150.617188 C 212.722656 150.710938 212.675781 150.78125 212.570312 150.929688 C 212.472656 151.070312 212.351562 151.257812 212.175781 151.460938 L 212.226562 151.398438 C 211.609375 152.265625 211.082031 153.175781 210.683594 154.105469 C 213.332031 152.027344 215.710938 149.613281 217.738281 146.917969 C 216.882812 147.324219 216.0625 147.808594 215.28125 148.363281 C 215.101562 148.503906 214.933594 148.617188 214.800781 148.710938 Z M 214.800781 148.710938 " fill-opacity="1" fill-rule="nonzero"/><path fill="rgb(0%, 0%, 0%)" d="M 211.300781 138.339844 C 210.285156 138.910156 209.296875 139.523438 208.355469 140.226562 L 207.644531 140.738281 C 207.417969 140.910156 207.273438 141.046875 207.027344 141.265625 L 205.714844 142.417969 L 204.234375 143.996094 C 204.035156 144.207031 203.839844 144.472656 203.617188 144.765625 L 203.265625 145.226562 C 203.152344 145.359375 203.066406 145.496094 202.96875 145.628906 C 202.152344 146.765625 201.417969 147.976562 200.8125 149.222656 C 200.574219 149.699219 200.371094 150.199219 200.175781 150.691406 C 200.269531 150.820312 200.367188 150.9375 200.460938 151.070312 C 201.121094 151.992188 201.742188 152.957031 202.332031 153.9375 C 202.6875 152.695312 203.15625 151.480469 203.777344 150.335938 C 204.371094 149.253906 205.050781 148.25 205.808594 147.292969 C 205.910156 147.167969 206.011719 147.03125 206.113281 146.921875 L 206.363281 146.621094 C 206.542969 146.402344 206.75 146.140625 207.019531 145.875 L 208.261719 144.675781 L 208.332031 144.605469 L 209.425781 143.738281 C 209.585938 143.613281 209.847656 143.386719 210.070312 143.246094 L 210.6875 142.859375 C 211.496094 142.324219 212.363281 141.847656 213.242188 141.414062 C 214.996094 140.546875 216.90625 139.945312 218.8125 139.601562 C 219.949219 139.398438 221.089844 139.261719 222.238281 139.207031 C 222.820312 137.871094 223.335938 136.5 223.773438 135.089844 C 221.773438 135.125 219.75 135.394531 217.800781 135.839844 C 215.507812 136.355469 213.339844 137.207031 211.300781 138.339844 Z M 211.300781 138.339844 " fill-opacity="1" fill-rule="nonzero"/><path fill="rgb(0%, 0%, 0%)" d="M 214.023438 142.898438 C 213.230469 143.355469 212.464844 143.839844 211.734375 144.398438 L 211.179688 144.800781 C 211.007812 144.925781 210.921875 145.027344 210.71875 145.203125 L 209.703125 146.109375 L 208.539062 147.367188 C 208.40625 147.515625 208.261719 147.710938 208.089844 147.949219 L 207.800781 148.328125 C 207.714844 148.429688 207.65625 148.535156 207.578125 148.636719 C 206.953125 149.523438 206.386719 150.472656 205.925781 151.441406 C 204.980469 153.355469 204.492188 155.738281 204.523438 158.046875 C 204.523438 158.046875 204.523438 158.050781 204.523438 158.050781 C 205.640625 157.476562 206.722656 156.847656 207.773438 156.171875 C 207.90625 155.558594 208.066406 154.953125 208.273438 154.347656 C 208.816406 152.777344 209.714844 151.429688 210.6875 150.214844 L 210.734375 150.160156 L 210.742188 150.152344 C 210.820312 150.074219 210.921875 149.945312 211.054688 149.78125 C 211.175781 149.625 211.371094 149.394531 211.558594 149.238281 L 212.328125 148.496094 L 212.414062 148.410156 L 212.4375 148.394531 L 213.296875 147.722656 C 213.476562 147.550781 213.714844 147.398438 213.886719 147.292969 C 214.0625 147.1875 214.210938 147.105469 214.316406 147.027344 L 214.371094 146.988281 C 215.421875 146.347656 216.53125 145.785156 217.707031 145.375 C 218.164062 145.21875 218.621094 145.105469 219.082031 144.996094 C 220.046875 143.535156 220.921875 142.011719 221.683594 140.421875 C 220.804688 140.535156 219.933594 140.691406 219.082031 140.890625 C 217.289062 141.3125 215.605469 141.992188 214.023438 142.898438 Z M 214.023438 142.898438 " fill-opacity="1" fill-rule="nonzero"/><path fill="rgb(0%, 0%, 0%)" d="M 225.28125 119.425781 C 224.921875 119.417969 224.558594 119.390625 224.199219 119.386719 C 219.910156 119.425781 215.59375 120.050781 211.472656 121.242188 C 209.832031 121.714844 208.238281 122.320312 206.671875 122.996094 C 204.3125 124.015625 202.03125 125.21875 199.886719 126.625 C 199.882812 126.628906 199.878906 126.628906 199.875 126.632812 C 199.421875 126.929688 199 127.207031 198.5625 127.527344 L 197.242188 128.480469 C 196.429688 129.074219 195.660156 129.824219 194.835938 130.527344 C 194.4375 130.886719 194.007812 131.214844 193.636719 131.605469 L 192.519531 132.769531 L 191.417969 133.925781 C 191.320312 134.03125 191.222656 134.164062 191.125 134.28125 C 190.894531 134.546875 190.664062 134.8125 190.433594 135.109375 C 189.414062 136.375 188.5 137.703125 187.644531 139.066406 C 187.757812 139.140625 187.878906 139.207031 187.992188 139.28125 C 188.664062 139.714844 189.328125 140.167969 189.976562 140.636719 C 190.875 139.265625 191.84375 137.941406 192.886719 136.710938 C 193.195312 136.332031 193.523438 135.941406 193.902344 135.554688 L 194.945312 134.523438 L 195.984375 133.5 C 196.328125 133.160156 196.726562 132.871094 197.089844 132.558594 L 198.214844 131.632812 C 198.574219 131.328125 199.027344 130.980469 199.433594 130.707031 L 199.476562 130.675781 L 200.628906 129.910156 C 201.027344 129.636719 201.472656 129.363281 201.882812 129.117188 C 205.222656 127.09375 208.851562 125.527344 212.628906 124.574219 C 216.398438 123.613281 220.265625 123.164062 224.152344 123.238281 C 224.59375 123.253906 225.03125 123.296875 225.46875 123.328125 L 225.46875 122.988281 C 225.472656 121.765625 225.402344 120.578125 225.28125 119.425781 Z M 225.28125 119.425781 " fill-opacity="1" fill-rule="nonzero"/><path fill="rgb(0%, 0%, 0%)" d="M 161.320312 149.054688 C 160 148.667969 158.648438 148.371094 157.28125 148.171875 C 157.789062 148.796875 158.328125 149.398438 158.875 149.992188 C 159.121094 150.042969 159.363281 150.082031 159.605469 150.136719 C 164.347656 151.300781 168.871094 153.757812 172.226562 157.574219 C 172.894531 158.328125 173.492188 159.160156 174.042969 160.027344 C 174.839844 160.3125 175.652344 160.570312 176.472656 160.800781 C 175.945312 159.828125 175.347656 158.886719 174.660156 158 C 171.386719 153.765625 166.558594 150.675781 161.320312 149.054688 Z M 161.320312 149.054688 " fill-opacity="1" fill-rule="nonzero"/><path fill="rgb(0%, 0%, 0%)" d="M 172.414062 132.546875 C 173.371094 132.785156 174.316406 133.0625 175.257812 133.355469 C 175.488281 133.425781 175.714844 133.496094 175.945312 133.570312 C 176.0625 133.609375 176.183594 133.644531 176.304688 133.6875 C 178.355469 134.367188 180.367188 135.179688 182.328125 136.113281 C 180.421875 135.042969 178.414062 134.109375 176.347656 133.277344 C 176.207031 133.21875 176.070312 133.160156 175.925781 133.105469 L 175.863281 131.566406 L 175.785156 129.5 L 176.082031 131.503906 C 176.882812 131.195312 177.472656 130.113281 177.472656 128.261719 C 177.472656 126.054688 176.359375 122.882812 175.597656 122.882812 C 174.851562 122.882812 173.722656 126.054688 173.722656 128.261719 C 173.722656 130.277344 174.421875 131.386719 175.332031 131.566406 L 175.28125 132.839844 C 173.792969 132.277344 172.285156 131.757812 170.726562 131.324219 L 170.71875 131.320312 C 170.371094 131.226562 170.027344 131.148438 169.683594 131.0625 C 169.476562 131.011719 169.265625 130.957031 169.058594 130.90625 L 168.957031 128.304688 L 168.84375 125.410156 L 169.257812 128.214844 C 170.378906 127.785156 171.207031 126.265625 171.207031 123.675781 C 171.207031 120.582031 169.648438 116.144531 168.578125 116.144531 C 167.53125 116.144531 165.949219 120.582031 165.949219 123.675781 C 165.949219 126.496094 166.929688 128.046875 168.203125 128.304688 L 168.109375 130.6875 C 165.972656 130.214844 163.890625 129.882812 161.871094 129.683594 C 161.613281 129.65625 161.363281 129.644531 161.109375 129.625 L 160.988281 126.539062 L 160.839844 122.777344 L 161.382812 126.425781 C 162.839844 125.863281 163.917969 123.890625 163.917969 120.527344 C 163.917969 116.5 161.890625 110.734375 160.5 110.734375 C 159.136719 110.734375 157.082031 116.5 157.082031 120.527344 C 157.082031 124.191406 158.355469 126.207031 160.011719 126.542969 L 159.894531 129.53125 C 156.09375 129.308594 152.507812 129.546875 149.109375 130.136719 C 149.109375 130.136719 149.101562 130.136719 149.101562 130.136719 C 149.125 130.285156 149.152344 130.429688 149.175781 130.574219 C 149.238281 130.914062 149.292969 131.257812 149.363281 131.597656 C 149.414062 131.828125 149.472656 132.054688 149.523438 132.285156 C 149.53125 132.285156 149.539062 132.285156 149.542969 132.285156 C 157.007812 130.625 164.90625 130.746094 172.414062 132.546875 Z M 172.414062 132.546875 " fill-opacity="1" fill-rule="nonzero"/><path fill="rgb(0%, 0%, 0%)" d="M 180.214844 157.542969 C 180.058594 157.320312 179.878906 157.113281 179.714844 156.890625 C 179.460938 156.546875 179.207031 156.203125 178.933594 155.867188 C 177.683594 154.351562 176.253906 152.976562 174.691406 151.746094 C 174.191406 151.347656 173.6875 150.953125 173.160156 150.585938 C 170.410156 148.664062 167.320312 147.160156 164.078125 146.191406 C 161.777344 145.503906 159.390625 145.082031 156.980469 144.910156 C 156.269531 144.863281 155.558594 144.84375 154.847656 144.84375 C 155.140625 145.292969 155.449219 145.738281 155.761719 146.175781 C 156.785156 146.21875 157.800781 146.320312 158.816406 146.460938 C 159.839844 146.605469 160.859375 146.78125 161.867188 147.023438 C 165.484375 147.933594 168.988281 149.472656 172.089844 151.648438 C 173.882812 152.902344 175.542969 154.371094 177.015625 156.054688 C 177.640625 156.773438 178.214844 157.550781 178.753906 158.351562 C 179.058594 158.804688 179.367188 159.253906 179.640625 159.730469 C 180.011719 160.382812 180.355469 161.054688 180.664062 161.75 C 181.085938 161.820312 181.511719 161.882812 181.941406 161.9375 C 182.171875 161.96875 182.402344 162 182.632812 162.027344 C 182.398438 161.445312 182.136719 160.867188 181.851562 160.300781 C 181.371094 159.351562 180.828125 158.429688 180.214844 157.542969 Z M 180.214844 157.542969 " fill-opacity="1" fill-rule="nonzero"/><path fill="rgb(0%, 0%, 0%)" d="M 186.125 156.3125 C 185.699219 155.714844 185.25 155.132812 184.785156 154.558594 C 184.0625 153.679688 183.28125 152.84375 182.464844 152.039062 C 182.042969 151.621094 181.605469 151.210938 181.160156 150.808594 C 180.996094 150.660156 180.828125 150.515625 180.660156 150.375 C 180.425781 150.171875 180.199219 149.964844 179.960938 149.769531 C 177.675781 147.90625 175.148438 146.316406 172.464844 145.039062 C 167.039062 142.410156 160.964844 141.128906 154.882812 141.285156 C 154.523438 141.296875 154.160156 141.332031 153.800781 141.355469 C 153.480469 141.375 153.164062 141.386719 152.847656 141.414062 C 153.097656 141.898438 153.355469 142.375 153.625 142.847656 C 154.0625 142.820312 154.5 142.816406 154.941406 142.804688 C 158.21875 142.71875 161.519531 143.066406 164.710938 143.828125 C 168.238281 144.734375 171.652344 146.09375 174.820312 147.976562 C 176.429688 148.929688 177.960938 150.027344 179.402344 151.25 C 179.460938 151.296875 179.507812 151.347656 179.5625 151.394531 C 179.816406 151.613281 180.050781 151.84375 180.296875 152.066406 C 180.945312 152.65625 181.574219 153.273438 182.179688 153.914062 C 182.558594 154.316406 182.949219 154.710938 183.308594 155.132812 C 183.738281 155.640625 184.148438 156.171875 184.550781 156.707031 C 185.710938 158.261719 186.734375 159.941406 187.582031 161.730469 C 187.667969 161.90625 187.753906 162.082031 187.835938 162.257812 C 188.359375 162.25 188.878906 162.230469 189.394531 162.199219 C 188.839844 160.867188 188.183594 159.582031 187.433594 158.335938 C 187.027344 157.652344 186.589844 156.972656 186.125 156.3125 Z M 186.125 156.3125 " fill-opacity="1" fill-rule="nonzero"/><path fill="rgb(0%, 0%, 0%)" d="M 191.804688 154.882812 C 191.410156 154.308594 190.972656 153.769531 190.542969 153.222656 C 189.902344 152.394531 189.226562 151.59375 188.511719 150.820312 C 187.84375 150.09375 187.148438 149.390625 186.421875 148.714844 C 186.34375 148.644531 186.261719 148.570312 186.183594 148.496094 C 185.464844 147.835938 184.726562 147.199219 183.957031 146.59375 C 183.382812 146.144531 182.8125 145.6875 182.21875 145.265625 C 181.984375 145.101562 181.742188 144.949219 181.503906 144.789062 C 177.847656 142.316406 173.789062 140.382812 169.535156 139.121094 C 163.757812 137.4375 157.578125 136.929688 151.570312 137.757812 C 151.453125 137.773438 151.335938 137.792969 151.21875 137.808594 C 151.414062 138.308594 151.617188 138.804688 151.835938 139.296875 C 152.015625 139.269531 152.195312 139.230469 152.375 139.207031 C 153.171875 139.101562 153.96875 139.019531 154.769531 138.964844 C 163.917969 138.269531 173.375 140.828125 181.023438 146.171875 C 181.25 146.332031 181.476562 146.488281 181.699219 146.648438 C 182.308594 147.097656 182.90625 147.5625 183.492188 148.042969 C 184.015625 148.476562 184.527344 148.925781 185.03125 149.390625 C 185.257812 149.597656 185.492188 149.804688 185.714844 150.019531 C 186.550781 150.828125 187.347656 151.683594 188.113281 152.574219 C 188.503906 153.035156 188.898438 153.492188 189.273438 153.972656 C 189.597656 154.398438 189.898438 154.847656 190.207031 155.285156 C 191.445312 157.078125 192.519531 159.003906 193.378906 161.03125 C 193.472656 161.253906 193.558594 161.472656 193.648438 161.699219 C 194.203125 161.601562 194.753906 161.496094 195.300781 161.375 C 194.738281 159.988281 194.082031 158.636719 193.335938 157.332031 C 192.855469 156.496094 192.355469 155.675781 191.804688 154.882812 Z M 191.804688 154.882812 " fill-opacity="1" fill-rule="nonzero"/><path fill="rgb(0%, 0%, 0%)" d="M 196.949219 153.527344 C 196.878906 153.421875 196.800781 153.320312 196.726562 153.214844 C 196.085938 152.28125 195.40625 151.367188 194.6875 150.484375 C 193.917969 149.539062 193.101562 148.628906 192.25 147.746094 C 191.675781 147.148438 191.089844 146.566406 190.484375 146 C 190.421875 145.941406 190.355469 145.886719 190.289062 145.824219 C 189.566406 145.160156 188.824219 144.515625 188.058594 143.898438 C 187.375 143.339844 186.679688 142.792969 185.964844 142.273438 C 185.929688 142.25 185.894531 142.230469 185.863281 142.207031 C 185.300781 141.804688 184.707031 141.445312 184.125 141.0625 C 183.902344 140.917969 183.6875 140.769531 183.460938 140.628906 C 179.808594 138.335938 175.835938 136.507812 171.691406 135.226562 C 166.566406 133.707031 161.15625 132.976562 155.765625 133.1875 C 153.816406 133.269531 151.867188 133.480469 149.9375 133.8125 C 149.925781 133.816406 149.914062 133.820312 149.898438 133.820312 C 150.0625 134.417969 150.234375 135.007812 150.425781 135.597656 C 150.476562 135.585938 150.527344 135.578125 150.578125 135.566406 C 157.074219 134.289062 163.886719 134.507812 170.347656 136.105469 C 174.78125 137.246094 179.066406 139.070312 183.015625 141.472656 C 183.246094 141.613281 183.484375 141.738281 183.714844 141.882812 C 184.296875 142.25 184.855469 142.652344 185.417969 143.046875 C 186.1875 143.582031 186.945312 144.128906 187.675781 144.714844 C 188.402344 145.292969 189.109375 145.886719 189.800781 146.511719 C 189.847656 146.554688 189.898438 146.589844 189.945312 146.632812 C 190.621094 147.257812 191.261719 147.921875 191.898438 148.585938 C 192.769531 149.496094 193.597656 150.445312 194.382812 151.4375 C 194.652344 151.773438 194.945312 152.089844 195.203125 152.4375 C 195.648438 153.035156 196.070312 153.652344 196.480469 154.273438 C 197.25 155.445312 197.953125 156.664062 198.589844 157.917969 C 198.960938 158.648438 199.308594 159.390625 199.636719 160.144531 C 199.90625 160.050781 200.179688 159.957031 200.445312 159.855469 C 199.933594 158.6875 199.363281 157.542969 198.738281 156.425781 C 198.179688 155.441406 197.589844 154.46875 196.949219 153.527344 Z M 196.949219 153.527344 " fill-opacity="1" fill-rule="nonzero"/><path fill="rgb(100%, 100%, 100%)" d="M 224.160156 123.234375 C 220.273438 123.160156 216.40625 123.605469 212.632812 124.574219 C 208.855469 125.523438 205.226562 127.089844 201.886719 129.113281 C 201.480469 129.363281 201.035156 129.636719 200.632812 129.90625 L 199.4375 130.703125 C 199.035156 130.976562 198.582031 131.324219 198.21875 131.628906 L 197.097656 132.554688 C 196.726562 132.871094 196.335938 133.15625 195.988281 133.496094 L 194.953125 134.519531 L 193.90625 135.554688 C 193.53125 135.9375 193.199219 136.332031 192.890625 136.707031 C 191.851562 137.941406 190.882812 139.261719 189.980469 140.632812 C 189.332031 140.167969 188.671875 139.710938 187.996094 139.277344 C 187.882812 139.203125 187.761719 139.132812 187.648438 139.0625 C 188.503906 137.703125 189.417969 136.371094 190.441406 135.105469 C 190.671875 134.808594 190.898438 134.542969 191.128906 134.277344 C 191.226562 134.164062 191.324219 134.03125 191.421875 133.921875 L 192.527344 132.765625 L 193.640625 131.601562 C 194.011719 131.214844 194.441406 130.886719 194.839844 130.523438 C 195.664062 129.824219 196.433594 129.074219 197.25 128.480469 L 198.566406 127.527344 C 199.003906 127.207031 199.425781 126.925781 199.878906 126.628906 C 199.882812 126.625 199.886719 126.625 199.890625 126.625 C 202.039062 125.21875 204.316406 124.011719 206.675781 122.996094 C 208.242188 122.320312 209.839844 121.714844 211.476562 121.238281 C 215.597656 120.050781 219.910156 119.425781 224.203125 119.382812 C 224.566406 119.386719 224.925781 119.414062 225.289062 119.425781 C 225.242188 118.980469 225.179688 118.546875 225.117188 118.113281 C 225.113281 118.078125 225.105469 118.039062 225.101562 118.003906 C 224.808594 117.988281 224.519531 117.957031 224.226562 117.949219 C 223.003906 117.925781 221.78125 117.960938 220.566406 118.027344 L 220.566406 111.773438 L 211.269531 107.542969 L 199.925781 107.542969 L 194.296875 110.105469 C 189.609375 104.242188 182.421875 100.480469 174.34375 100.480469 C 160.222656 100.480469 148.773438 111.960938 148.773438 126.121094 C 148.773438 127.488281 148.910156 128.820312 149.117188 130.128906 C 152.511719 129.542969 156.101562 129.304688 159.898438 129.527344 L 160.015625 126.539062 C 158.363281 126.203125 157.089844 124.1875 157.089844 120.519531 C 157.089844 116.496094 159.144531 110.730469 160.503906 110.730469 C 161.894531 110.730469 163.921875 116.496094 163.921875 120.519531 C 163.921875 123.886719 162.84375 125.859375 161.390625 126.421875 L 160.847656 122.773438 L 160.992188 126.535156 L 161.113281 129.617188 C 161.371094 129.640625 161.617188 129.652344 161.875 129.675781 C 163.894531 129.875 165.976562 130.210938 168.113281 130.679688 L 168.207031 128.296875 C 166.9375 128.042969 165.953125 126.492188 165.953125 123.671875 C 165.953125 120.578125 167.535156 116.140625 168.582031 116.140625 C 169.652344 116.140625 171.210938 120.578125 171.210938 123.671875 C 171.210938 126.257812 170.382812 127.777344 169.265625 128.210938 L 168.847656 125.402344 L 168.960938 128.296875 L 169.0625 130.902344 C 169.273438 130.953125 169.480469 131.003906 169.6875 131.058594 C 170.035156 131.144531 170.375 131.222656 170.722656 131.316406 L 170.730469 131.316406 C 172.289062 131.753906 173.800781 132.273438 175.285156 132.835938 L 175.335938 131.5625 C 174.429688 131.378906 173.726562 130.269531 173.726562 128.257812 C 173.726562 126.046875 174.855469 122.878906 175.601562 122.878906 C 176.367188 122.878906 177.480469 126.046875 177.480469 128.257812 C 177.480469 130.109375 176.886719 131.191406 176.089844 131.5 L 175.789062 129.496094 L 175.871094 131.5625 L 175.929688 133.101562 C 176.074219 133.15625 176.210938 133.214844 176.351562 133.269531 C 178.417969 134.105469 180.425781 135.035156 182.332031 136.109375 C 180.375 135.175781 178.359375 134.363281 176.308594 133.679688 C 176.191406 133.640625 176.070312 133.605469 175.949219 133.566406 C 175.71875 133.492188 175.492188 133.421875 175.261719 133.347656 C 174.324219 133.054688 173.375 132.78125 172.421875 132.542969 C 164.90625 130.738281 157.011719 130.621094 149.542969 132.273438 C 149.539062 132.277344 149.53125 132.277344 149.523438 132.277344 C 149.640625 132.792969 149.765625 133.304688 149.902344 133.8125 C 149.917969 133.8125 149.929688 133.808594 149.945312 133.808594 C 151.875 133.472656 153.824219 133.265625 155.769531 133.183594 C 161.160156 132.972656 166.570312 133.703125 171.695312 135.21875 C 175.84375 136.503906 179.816406 138.332031 183.46875 140.621094 C 183.691406 140.761719 183.90625 140.914062 184.128906 141.058594 C 184.710938 141.4375 185.300781 141.796875 185.867188 142.203125 C 185.898438 142.226562 185.9375 142.246094 185.96875 142.269531 C 186.683594 142.789062 187.378906 143.335938 188.066406 143.890625 C 188.828125 144.511719 189.574219 145.152344 190.292969 145.820312 C 190.359375 145.878906 190.425781 145.933594 190.492188 145.996094 C 191.097656 146.5625 191.683594 147.144531 192.257812 147.742188 C 193.105469 148.621094 193.921875 149.535156 194.691406 150.480469 C 195.410156 151.363281 196.089844 152.273438 196.734375 153.210938 C 196.804688 153.3125 196.882812 153.417969 196.953125 153.519531 C 197.59375 154.464844 198.183594 155.4375 198.742188 156.429688 C 199.367188 157.542969 199.9375 158.6875 200.449219 159.859375 C 200.828125 159.71875 201.203125 159.566406 201.574219 159.414062 C 201.984375 159.246094 202.390625 159.070312 202.796875 158.886719 C 203.378906 158.621094 203.953125 158.34375 204.519531 158.050781 C 204.523438 158.050781 204.527344 158.050781 204.53125 158.046875 C 204.53125 158.046875 204.53125 158.042969 204.53125 158.042969 C 204.5 155.734375 204.988281 153.351562 205.933594 151.4375 C 206.398438 150.46875 206.960938 149.523438 207.585938 148.632812 C 207.664062 148.53125 207.722656 148.429688 207.808594 148.328125 L 208.097656 147.945312 C 208.269531 147.707031 208.414062 147.511719 208.546875 147.363281 L 209.707031 146.105469 L 210.726562 145.203125 C 210.929688 145.023438 211.011719 144.925781 211.1875 144.800781 L 211.742188 144.394531 C 212.472656 143.835938 213.238281 143.351562 214.03125 142.894531 C 215.617188 141.988281 217.296875 141.308594 219.09375 140.890625 C 219.945312 140.695312 220.820312 140.535156 221.695312 140.421875 C 221.890625 140.019531 222.066406 139.609375 222.246094 139.199219 C 221.097656 139.253906 219.960938 139.386719 218.820312 139.589844 C 216.917969 139.933594 215.007812 140.535156 213.253906 141.40625 C 212.375 141.835938 211.507812 142.3125 210.699219 142.847656 L 210.078125 143.238281 C 209.859375 143.378906 209.597656 143.601562 209.4375 143.726562 L 208.34375 144.597656 L 208.328125 144.609375 L 208.269531 144.664062 L 207.03125 145.863281 C 206.761719 146.128906 206.554688 146.390625 206.375 146.613281 L 206.125 146.910156 C 206.019531 147.023438 205.917969 147.160156 205.816406 147.285156 C 205.0625 148.242188 204.382812 149.246094 203.785156 150.328125 C 203.167969 151.472656 202.695312 152.683594 202.34375 153.929688 C 201.753906 152.945312 201.136719 151.988281 200.46875 151.058594 C 200.378906 150.929688 200.277344 150.808594 200.183594 150.679688 C 200.382812 150.1875 200.582031 149.691406 200.824219 149.214844 C 201.429688 147.964844 202.164062 146.757812 202.976562 145.621094 C 203.078125 145.488281 203.167969 145.351562 203.277344 145.21875 L 203.628906 144.757812 C 203.851562 144.460938 204.046875 144.199219 204.242188 143.984375 L 205.726562 142.410156 L 207.039062 141.253906 C 207.285156 141.039062 207.425781 140.898438 207.65625 140.730469 L 208.367188 140.214844 C 209.308594 139.515625 210.289062 138.898438 211.308594 138.328125 C 213.347656 137.191406 215.519531 136.34375 217.8125 135.820312 C 219.757812 135.378906 221.78125 135.105469 223.78125 135.070312 C 223.90625 134.671875 224.015625 134.265625 224.125 133.859375 C 221.898438 133.785156 219.695312 133.992188 217.507812 134.40625 C 215.097656 134.863281 212.703125 135.644531 210.488281 136.753906 C 209.382812 137.308594 208.292969 137.917969 207.269531 138.605469 L 206.496094 139.113281 C 206.230469 139.289062 205.921875 139.546875 205.710938 139.71875 L 204.320312 140.851562 L 204.296875 140.867188 L 204.246094 140.917969 L 202.671875 142.464844 C 202.359375 142.777344 202.105469 143.097656 201.875 143.378906 L 201.542969 143.78125 C 201.414062 143.925781 201.292969 144.089844 201.167969 144.246094 C 200.226562 145.457031 199.378906 146.734375 198.648438 148.097656 C 198.582031 148.226562 198.53125 148.363281 198.464844 148.496094 C 197.828125 147.738281 197.175781 146.992188 196.492188 146.28125 C 197.128906 145.082031 197.828125 143.914062 198.625 142.808594 C 198.746094 142.644531 198.851562 142.480469 198.988281 142.324219 L 199.414062 141.773438 C 199.679688 141.417969 199.921875 141.101562 200.164062 140.835938 L 201.957031 138.9375 L 203.539062 137.542969 C 203.835938 137.277344 204.011719 137.113281 204.289062 136.90625 L 205.144531 136.277344 C 206.28125 135.429688 207.472656 134.6875 208.703125 133.996094 C 211.167969 132.625 213.796875 131.597656 216.570312 130.957031 C 219.304688 130.320312 222.164062 129.957031 224.964844 130.015625 C 225.050781 129.492188 225.121094 128.964844 225.1875 128.433594 C 225.152344 128.429688 225.121094 128.425781 225.089844 128.421875 C 222.078125 128.230469 219.109375 128.488281 216.160156 129.039062 C 213.222656 129.601562 210.3125 130.550781 207.613281 131.894531 C 206.261719 132.566406 204.9375 133.308594 203.691406 134.148438 L 202.75 134.769531 C 202.429688 134.980469 202.054688 135.292969 201.792969 135.503906 L 200.101562 136.875 L 200.074219 136.898438 L 200.007812 136.964844 L 198.089844 138.851562 C 197.71875 139.230469 197.410156 139.609375 197.125 139.957031 L 196.714844 140.449219 C 196.554688 140.628906 196.410156 140.828125 196.261719 141.015625 C 195.511719 141.980469 194.832031 142.996094 194.191406 144.039062 C 193.902344 143.777344 193.621094 143.511719 193.328125 143.261719 C 192.941406 142.929688 192.550781 142.609375 192.15625 142.289062 C 192.980469 140.914062 193.886719 139.582031 194.902344 138.3125 C 195.1875 137.945312 195.460938 137.601562 195.742188 137.296875 L 196.699219 136.292969 L 197.664062 135.277344 C 197.921875 135.007812 198.203125 134.773438 198.484375 134.53125 C 198.558594 134.464844 198.632812 134.40625 198.703125 134.339844 L 199.753906 133.414062 C 200.109375 133.09375 200.40625 132.84375 200.78125 132.570312 L 201.929688 131.738281 C 202.308594 131.457031 202.664062 131.222656 203.058594 130.960938 C 206.15625 128.917969 209.535156 127.292969 213.105469 126.257812 C 216.679688 125.21875 220.425781 124.667969 224.148438 124.625 C 224.585938 124.625 225.023438 124.65625 225.460938 124.667969 C 225.46875 124.351562 225.484375 124.039062 225.484375 123.722656 L 225.484375 123.320312 C 225.03125 123.296875 224.597656 123.25 224.160156 123.234375 Z M 199.921875 108.945312 L 208.078125 112.660156 L 208.078125 120.378906 C 205.203125 121.339844 202.4375 122.609375 199.808594 124.117188 C 199.710938 124.171875 199.609375 124.226562 199.507812 124.285156 L 199.507812 119.695312 L 193.769531 119.695312 L 193.769531 128.246094 L 193.21875 128.699219 C 192.796875 129.066406 192.34375 129.398438 191.945312 129.785156 L 191.765625 129.96875 L 191.765625 112.660156 L 195.070312 111.152344 Z M 211.003906 119.507812 C 210.449219 119.652344 209.90625 119.835938 209.355469 120 L 209.355469 112.652344 L 219.234375 112.578125 L 219.285156 112.597656 L 219.285156 118.136719 C 216.492188 118.367188 213.722656 118.804688 211.003906 119.507812 Z M 211.003906 119.507812 " fill-opacity="1" fill-rule="nonzero"/><path fill="rgb(100%, 100%, 100%)" d="M 214.371094 146.992188 L 214.316406 147.035156 C 214.210938 147.109375 214.0625 147.195312 213.886719 147.300781 C 213.714844 147.402344 213.476562 147.558594 213.296875 147.730469 L 212.4375 148.402344 L 212.414062 148.417969 L 212.328125 148.503906 L 211.558594 149.246094 C 211.375 149.402344 211.175781 149.632812 211.054688 149.789062 C 210.921875 149.953125 210.820312 150.082031 210.742188 150.160156 L 210.734375 150.167969 L 210.6875 150.222656 C 209.714844 151.433594 208.816406 152.785156 208.273438 154.355469 C 208.066406 154.957031 207.90625 155.566406 207.773438 156.179688 C 208.773438 155.535156 209.746094 154.847656 210.679688 154.113281 C 211.078125 153.179688 211.605469 152.265625 212.226562 151.402344 L 212.171875 151.464844 C 212.347656 151.261719 212.46875 151.078125 212.566406 150.9375 C 212.675781 150.785156 212.722656 150.71875 212.824219 150.621094 L 213.625 149.738281 L 214.464844 148.996094 C 214.558594 148.894531 214.640625 148.828125 214.796875 148.714844 C 214.929688 148.621094 215.101562 148.507812 215.277344 148.363281 C 216.058594 147.808594 216.882812 147.332031 217.734375 146.921875 C 218.207031 146.296875 218.652344 145.65625 219.085938 145.003906 C 218.625 145.113281 218.164062 145.226562 217.707031 145.382812 C 216.53125 145.792969 215.421875 146.355469 214.371094 146.992188 Z M 214.371094 146.992188 " fill-opacity="1" fill-rule="nonzero"/><path fill="rgb(100%, 100%, 100%)" d="M 196.476562 154.28125 C 196.066406 153.65625 195.644531 153.039062 195.199219 152.441406 C 194.945312 152.097656 194.652344 151.78125 194.382812 151.445312 C 193.59375 150.453125 192.769531 149.5 191.894531 148.59375 C 191.257812 147.925781 190.621094 147.257812 189.945312 146.640625 C 189.894531 146.597656 189.84375 146.558594 189.796875 146.515625 C 189.109375 145.890625 188.398438 145.292969 187.675781 144.71875 C 186.941406 144.132812 186.183594 143.585938 185.417969 143.050781 C 184.851562 142.65625 184.292969 142.257812 183.710938 141.890625 C 183.484375 141.742188 183.242188 141.617188 183.011719 141.476562 C 179.066406 139.074219 174.78125 137.25 170.347656 136.109375 C 163.882812 134.507812 157.070312 134.292969 150.578125 135.570312 C 150.527344 135.582031 150.472656 135.589844 150.421875 135.601562 C 150.664062 136.351562 150.929688 137.089844 151.214844 137.816406 C 151.332031 137.800781 151.449219 137.78125 151.566406 137.765625 C 157.570312 136.9375 163.753906 137.445312 169.53125 139.128906 C 173.789062 140.390625 177.847656 142.324219 181.503906 144.796875 C 181.738281 144.957031 181.984375 145.109375 182.21875 145.273438 C 182.8125 145.695312 183.382812 146.152344 183.953125 146.601562 C 184.71875 147.207031 185.460938 147.84375 186.183594 148.503906 C 186.261719 148.578125 186.34375 148.652344 186.421875 148.722656 C 187.144531 149.398438 187.839844 150.101562 188.511719 150.828125 C 189.222656 151.601562 189.898438 152.402344 190.542969 153.230469 C 190.964844 153.777344 191.40625 154.316406 191.800781 154.890625 C 192.347656 155.683594 192.855469 156.503906 193.332031 157.339844 C 194.078125 158.648438 194.734375 160 195.292969 161.386719 C 195.539062 161.332031 195.78125 161.277344 196.023438 161.21875 C 196.910156 161.003906 197.78125 160.765625 198.640625 160.492188 C 198.976562 160.390625 199.304688 160.273438 199.628906 160.15625 C 199.308594 159.402344 198.960938 158.660156 198.585938 157.929688 C 197.949219 156.667969 197.242188 155.449219 196.476562 154.28125 Z M 196.476562 154.28125 " fill-opacity="1" fill-rule="nonzero"/><path fill="rgb(100%, 100%, 100%)" d="M 190.203125 155.292969 C 189.898438 154.851562 189.597656 154.402344 189.269531 153.980469 C 188.898438 153.496094 188.503906 153.039062 188.109375 152.582031 C 187.347656 151.6875 186.550781 150.835938 185.710938 150.023438 C 185.488281 149.808594 185.257812 149.605469 185.027344 149.394531 C 184.523438 148.933594 184.015625 148.480469 183.488281 148.050781 C 182.902344 147.566406 182.308594 147.101562 181.695312 146.65625 C 181.476562 146.492188 181.25 146.335938 181.023438 146.179688 C 173.375 140.835938 163.914062 138.273438 154.765625 138.972656 C 153.96875 139.027344 153.167969 139.105469 152.375 139.210938 C 152.195312 139.234375 152.011719 139.273438 151.832031 139.300781 C 152.148438 140.019531 152.488281 140.726562 152.847656 141.421875 C 153.167969 141.394531 153.484375 141.382812 153.800781 141.363281 C 154.164062 141.339844 154.523438 141.304688 154.886719 141.292969 C 160.964844 141.136719 167.039062 142.417969 172.464844 145.046875 C 175.152344 146.320312 177.675781 147.914062 179.960938 149.777344 C 180.203125 149.972656 180.429688 150.179688 180.664062 150.382812 C 180.832031 150.527344 180.996094 150.671875 181.164062 150.816406 C 181.609375 151.21875 182.042969 151.628906 182.46875 152.046875 C 183.28125 152.851562 184.066406 153.6875 184.789062 154.566406 C 185.257812 155.136719 185.703125 155.71875 186.128906 156.320312 C 186.589844 156.980469 187.027344 157.660156 187.441406 158.347656 C 188.1875 159.589844 188.847656 160.878906 189.398438 162.207031 C 189.625 162.195312 189.84375 162.175781 190.070312 162.15625 C 191.203125 162.066406 192.324219 161.933594 193.425781 161.746094 C 193.5 161.734375 193.574219 161.722656 193.648438 161.707031 C 193.558594 161.488281 193.472656 161.261719 193.378906 161.042969 C 192.515625 159.007812 191.445312 157.082031 190.203125 155.292969 Z M 190.203125 155.292969 " fill-opacity="1" fill-rule="nonzero"/><path fill="rgb(100%, 100%, 100%)" d="M 184.554688 156.710938 C 184.152344 156.171875 183.742188 155.644531 183.3125 155.136719 C 182.953125 154.714844 182.5625 154.320312 182.179688 153.917969 C 181.578125 153.277344 180.953125 152.660156 180.300781 152.070312 C 180.054688 151.847656 179.816406 151.613281 179.566406 151.398438 C 179.511719 151.351562 179.460938 151.296875 179.40625 151.253906 C 177.964844 150.03125 176.429688 148.933594 174.824219 147.976562 C 171.65625 146.097656 168.238281 144.738281 164.714844 143.832031 C 161.523438 143.070312 158.222656 142.722656 154.945312 142.808594 C 154.503906 142.816406 154.0625 142.820312 153.628906 142.851562 C 154.011719 143.527344 154.417969 144.191406 154.84375 144.84375 C 155.554688 144.84375 156.269531 144.859375 156.976562 144.910156 C 159.386719 145.078125 161.777344 145.5 164.078125 146.191406 C 167.320312 147.164062 170.40625 148.667969 173.15625 150.585938 C 173.683594 150.953125 174.191406 151.347656 174.691406 151.746094 C 176.25 152.976562 177.683594 154.355469 178.929688 155.867188 C 179.203125 156.199219 179.460938 156.546875 179.714844 156.890625 C 179.875 157.113281 180.054688 157.316406 180.210938 157.542969 C 180.828125 158.425781 181.367188 159.351562 181.847656 160.300781 C 182.132812 160.867188 182.398438 161.445312 182.628906 162.027344 C 183.277344 162.101562 183.925781 162.15625 184.582031 162.199219 C 185.386719 162.25 186.199219 162.285156 187.011719 162.285156 C 187.222656 162.285156 187.433594 162.273438 187.644531 162.269531 C 187.710938 162.269531 187.773438 162.265625 187.835938 162.265625 C 187.753906 162.085938 187.667969 161.910156 187.582031 161.734375 C 186.734375 159.941406 185.710938 158.265625 184.554688 156.710938 Z M 184.554688 156.710938 " fill-opacity="1" fill-rule="nonzero"/><path fill="rgb(100%, 100%, 100%)" d="M 178.753906 158.351562 C 178.210938 157.550781 177.640625 156.773438 177.011719 156.058594 C 175.542969 154.371094 173.882812 152.90625 172.085938 151.648438 C 168.984375 149.480469 165.480469 147.9375 161.863281 147.027344 C 160.859375 146.785156 159.835938 146.609375 158.8125 146.464844 C 157.796875 146.320312 156.78125 146.222656 155.757812 146.179688 C 156.246094 146.859375 156.75 147.527344 157.277344 148.171875 C 158.648438 148.371094 160 148.667969 161.316406 149.054688 C 166.554688 150.675781 171.382812 153.765625 174.65625 158 C 175.347656 158.886719 175.945312 159.832031 176.46875 160.804688 C 177.242188 161.027344 178.027344 161.226562 178.820312 161.398438 C 179.121094 161.464844 179.421875 161.523438 179.730469 161.582031 C 180.039062 161.644531 180.347656 161.699219 180.660156 161.75 C 180.351562 161.058594 180.011719 160.382812 179.632812 159.730469 C 179.363281 159.257812 179.058594 158.804688 178.753906 158.351562 Z M 178.753906 158.351562 " fill-opacity="1" fill-rule="nonzero"/><path fill="rgb(100%, 100%, 100%)" d="M 159.601562 150.140625 C 159.363281 150.082031 159.113281 150.042969 158.875 149.992188 C 163.019531 154.457031 168.203125 157.933594 174.042969 160.03125 C 173.492188 159.164062 172.894531 158.335938 172.226562 157.582031 C 168.867188 153.761719 164.34375 151.304688 159.601562 150.140625 Z M 159.601562 150.140625 " fill-opacity="1" fill-rule="nonzero"/><path fill="rgb(0%, 0%, 0%)" d="M 211.003906 119.507812 C 210.449219 119.652344 209.90625 119.835938 209.355469 120 L 209.355469 112.652344 L 219.234375 112.578125 L 219.285156 112.597656 L 219.285156 118.136719 C 216.492188 118.367188 213.722656 118.804688 211.003906 119.507812 Z M 211.003906 119.507812 " fill-opacity="1" fill-rule="nonzero"/><g clip-path="url(#id2)"><path fill="rgb(100%, 100%, 100%)" d="M 189.296875 215.457031 C 189.101562 209.511719 189.015625 203.566406 188.875 197.617188 L 188.75 188.695312 C 188.730469 185.59375 189.171875 182.484375 190.054688 179.496094 C 190.945312 176.519531 192.242188 173.632812 194.03125 171.058594 C 195.816406 168.484375 198.019531 166.191406 200.550781 164.324219 C 201.808594 163.378906 203.167969 162.582031 204.566406 161.863281 C 205.871094 161.199219 207.109375 160.539062 208.328125 159.777344 C 210.753906 158.265625 213.015625 156.496094 215.078125 154.519531 C 219.167969 150.539062 222.53125 145.777344 224.707031 140.46875 C 226.894531 135.207031 227.960938 129.359375 227.765625 123.726562 C 227.582031 120.90625 227.035156 117.996094 226.425781 115.125 C 225.804688 112.25 225.089844 109.382812 224.320312 106.527344 C 222.792969 100.816406 221.117188 95.097656 219.042969 89.605469 L 219.039062 89.585938 C 218.917969 89.269531 219.074219 88.921875 219.386719 88.800781 C 219.683594 88.691406 220.011719 88.828125 220.148438 89.105469 C 221.457031 91.828125 222.527344 94.617188 223.554688 97.421875 C 224.574219 100.230469 225.558594 103.046875 226.449219 105.902344 C 227.324219 108.761719 228.148438 111.640625 228.875 114.550781 C 229.59375 117.472656 230.261719 120.402344 230.570312 123.511719 C 231.277344 135.90625 226.253906 148.34375 217.296875 156.847656 C 215.058594 158.96875 212.605469 160.855469 209.984375 162.464844 C 208.679688 163.269531 207.292969 163.996094 205.945312 164.667969 C 204.707031 165.300781 203.496094 165.996094 202.375 166.828125 C 197.847656 170.109375 194.488281 174.949219 192.753906 180.335938 C 191.882812 183.03125 191.410156 185.859375 191.355469 188.703125 L 191.226562 197.617188 C 191.085938 203.5625 191 209.507812 190.804688 215.457031 C 190.792969 215.875 190.445312 216.199219 190.027344 216.1875 C 189.625 216.175781 189.3125 215.851562 189.296875 215.457031 Z M 189.296875 215.457031 " fill-opacity="1" fill-rule="nonzero"/></g><g clip-path="url(#id3)"><path fill="rgb(100%, 100%, 100%)" d="M 154.804688 89.507812 C 153.074219 94.316406 151.625 99.242188 150.183594 104.152344 C 148.796875 109.078125 147.492188 114.042969 146.601562 119.03125 C 146.394531 120.277344 146.1875 121.527344 146.085938 122.761719 C 145.941406 124.007812 145.960938 125.167969 145.996094 126.441406 C 146.09375 128.9375 146.429688 131.421875 146.96875 133.851562 C 148.070312 138.707031 149.96875 143.394531 152.695312 147.566406 C 155.386719 151.761719 158.867188 155.449219 162.875 158.421875 C 164.890625 159.90625 167.023438 161.1875 169.28125 162.316406 C 171.667969 163.511719 173.867188 165.070312 175.792969 166.910156 C 179.652344 170.59375 182.382812 175.367188 183.757812 180.476562 C 184.4375 183.035156 184.789062 185.675781 184.800781 188.316406 L 184.734375 196.03125 C 184.734375 196.449219 184.394531 196.785156 183.976562 196.78125 C 183.566406 196.777344 183.234375 196.441406 183.230469 196.03125 L 183.132812 188.339844 C 183.070312 185.84375 182.6875 183.359375 181.992188 180.96875 C 180.632812 176.1875 178.011719 171.761719 174.394531 168.402344 C 172.585938 166.722656 170.539062 165.3125 168.328125 164.242188 C 165.984375 163.109375 163.683594 161.777344 161.550781 160.242188 C 157.28125 157.171875 153.550781 153.324219 150.640625 148.914062 C 147.742188 144.507812 145.617188 139.558594 144.539062 134.375 C 144.015625 131.789062 143.703125 129.152344 143.644531 126.515625 C 143.613281 125.226562 143.660156 123.808594 143.859375 122.507812 C 144.019531 121.1875 144.28125 119.910156 144.542969 118.628906 C 145.644531 113.539062 147.144531 108.605469 148.71875 103.699219 C 150.316406 98.800781 152.054688 93.960938 154.066406 89.203125 C 154.152344 89 154.390625 88.902344 154.59375 88.992188 C 154.789062 89.074219 154.886719 89.296875 154.8125 89.496094 Z M 154.804688 89.507812 " fill-opacity="1" fill-rule="nonzero"/></g><g fill="rgb(100%, 100%, 100%)" fill-opacity="1"><g transform="translate(127.63088, 245.918597)"><g><path d="M 1.390625 0 L 6.886719 0 L 6.886719 -0.414062 C 5.914062 -0.738281 5.707031 -1.625 5.707031 -3.753906 L 5.707031 -10.703125 L 15.996094 -10.703125 L 15.996094 -3.753906 C 15.996094 -1.625 15.789062 -0.738281 14.8125 -0.414062 L 14.8125 0 L 20.3125 0 L 20.3125 -0.414062 C 19.335938 -0.738281 19.128906 -1.625 19.128906 -3.753906 L 19.128906 -16.941406 C 19.128906 -19.070312 19.335938 -19.957031 20.3125 -20.28125 L 20.3125 -20.695312 L 14.8125 -20.695312 L 14.8125 -20.28125 C 15.789062 -19.957031 15.996094 -19.070312 15.996094 -16.941406 L 15.996094 -11.234375 L 5.707031 -11.234375 L 5.707031 -16.941406 C 5.707031 -19.070312 5.914062 -19.957031 6.886719 -20.28125 L 6.886719 -20.695312 L 1.390625 -20.695312 L 1.390625 -20.28125 C 2.363281 -19.957031 2.570312 -19.070312 2.570312 -16.941406 L 2.570312 -3.753906 C 2.570312 -1.625 2.363281 -0.738281 1.390625 -0.414062 Z M 1.390625 0 "/></g></g></g><g fill="rgb(100%, 100%, 100%)" fill-opacity="1"><g transform="translate(149.324048, 245.918597)"><g><path d="M 1.390625 0 L 6.886719 0 L 6.886719 -0.414062 C 5.914062 -0.738281 5.707031 -1.625 5.707031 -3.753906 L 5.707031 -16.941406 C 5.707031 -19.070312 5.914062 -19.957031 6.886719 -20.28125 L 6.886719 -20.695312 L 1.390625 -20.695312 L 1.390625 -20.28125 C 2.363281 -19.957031 2.570312 -19.070312 2.570312 -16.941406 L 2.570312 -3.753906 C 2.570312 -1.625 2.363281 -0.738281 1.390625 -0.414062 Z M 1.390625 0 "/></g></g></g><g fill="rgb(100%, 100%, 100%)" fill-opacity="1"><g transform="translate(157.599373, 245.918597)"><g><path d="M 1.390625 0 L 15.460938 0 L 15.699219 -3.726562 L 15.316406 -3.785156 C 14.132812 -1.242188 12.59375 -0.53125 9.609375 -0.53125 L 7.183594 -0.53125 C 6.238281 -0.53125 5.707031 -1.0625 5.707031 -2.011719 L 5.707031 -16.941406 C 5.707031 -19.070312 5.914062 -19.957031 6.886719 -20.28125 L 6.886719 -20.695312 L 1.390625 -20.695312 L 1.390625 -20.28125 C 2.363281 -19.957031 2.570312 -19.070312 2.570312 -16.941406 L 2.570312 -3.753906 C 2.570312 -1.625 2.363281 -0.738281 1.390625 -0.414062 Z M 1.390625 0 "/></g></g></g><g fill="rgb(100%, 100%, 100%)" fill-opacity="1"><g transform="translate(173.82492, 245.918597)"><g><path d="M 1.390625 0 L 15.460938 0 L 15.699219 -3.726562 L 15.316406 -3.785156 C 14.132812 -1.242188 12.59375 -0.53125 9.609375 -0.53125 L 7.183594 -0.53125 C 6.238281 -0.53125 5.707031 -1.0625 5.707031 -2.011719 L 5.707031 -16.941406 C 5.707031 -19.070312 5.914062 -19.957031 6.886719 -20.28125 L 6.886719 -20.695312 L 1.390625 -20.695312 L 1.390625 -20.28125 C 2.363281 -19.957031 2.570312 -19.070312 2.570312 -16.941406 L 2.570312 -3.753906 C 2.570312 -1.625 2.363281 -0.738281 1.390625 -0.414062 Z M 1.390625 0 "/></g></g></g><g fill="rgb(100%, 100%, 100%)" fill-opacity="1"><g transform="translate(190.050467, 245.918597)"><g><path d="M 5.558594 0 L 11.085938 0 L 11.085938 -0.414062 C 10.109375 -0.738281 9.902344 -1.625 9.902344 -3.753906 L 9.902344 -20.164062 L 10.761719 -20.164062 C 13.394531 -20.164062 14.722656 -19.425781 15.816406 -17.058594 L 16.171875 -17.117188 L 15.996094 -20.695312 L 0.589844 -20.695312 L 0.414062 -17.117188 L 0.769531 -17.058594 C 1.863281 -19.425781 3.191406 -20.164062 5.824219 -20.164062 L 6.742188 -20.164062 L 6.742188 -3.753906 C 6.742188 -1.625 6.535156 -0.738281 5.558594 -0.414062 Z M 5.558594 0 "/></g></g></g><g fill="rgb(100%, 100%, 100%)" fill-opacity="1"><g transform="translate(206.601117, 245.918597)"><g><path d="M 12.179688 0.296875 C 17.148438 0.296875 22.734375 -3.046875 22.734375 -10.257812 C 22.734375 -17.503906 17.175781 -20.933594 12.179688 -20.933594 C 5.914062 -20.933594 1.597656 -16.289062 1.597656 -10.4375 C 1.597656 -3.015625 7.15625 0.296875 12.179688 0.296875 Z M 4.671875 -12.238281 C 4.347656 -17.03125 6.621094 -20.164062 10.644531 -20.164062 C 15.757812 -20.164062 19.304688 -14.222656 19.75 -7.921875 C 20.015625 -4.019531 18.390625 -0.621094 13.867188 -0.621094 C 8.839844 -0.621094 5.085938 -6.328125 4.671875 -12.238281 Z M 4.671875 -12.238281 "/></g></g></g><g fill="rgb(100%, 100%, 100%)" fill-opacity="1"><g transform="translate(230.835994, 245.918597)"><g><path d="M 1.390625 0 L 6.886719 0 L 6.886719 -0.414062 C 5.914062 -0.738281 5.707031 -1.625 5.707031 -3.753906 L 5.707031 -8.128906 L 7.15625 -8.128906 C 13.214844 -8.128906 15.875 -11.265625 15.875 -14.960938 C 15.875 -17.355469 14.339844 -20.695312 7.597656 -20.695312 L 1.390625 -20.695312 L 1.390625 -20.28125 C 2.363281 -19.957031 2.570312 -19.070312 2.570312 -16.941406 L 2.570312 -3.753906 C 2.570312 -1.625 2.363281 -0.738281 1.390625 -0.414062 Z M 5.707031 -8.601562 L 5.707031 -20.164062 C 5.914062 -20.191406 6.328125 -20.222656 6.621094 -20.222656 C 11.292969 -20.222656 12.535156 -16.734375 12.535156 -14.191406 C 12.535156 -10.851562 10.878906 -8.601562 7.007812 -8.601562 Z M 5.707031 -8.601562 "/></g></g></g><g fill="rgb(100%, 100%, 100%)" fill-opacity="1"><g transform="translate(161.890936, 267.161702)"><g><path d="M 3.28125 -3.921875 L 3.28125 -4.765625 L 5.546875 -4.765625 L 5.546875 -0.140625 C 5.242188 -0.0664062 4.894531 -0.0078125 4.5 0.03125 C 4.101562 0.0820312 3.753906 0.109375 3.453125 0.109375 C 2.671875 0.109375 2.085938 -0.00390625 1.703125 -0.234375 C 1.316406 -0.460938 1.050781 -0.894531 0.90625 -1.53125 C 0.757812 -2.164062 0.6875 -3.144531 0.6875 -4.46875 C 0.6875 -5.78125 0.757812 -6.75 0.90625 -7.375 C 1.050781 -8.007812 1.316406 -8.445312 1.703125 -8.6875 C 2.085938 -8.925781 2.675781 -9.046875 3.46875 -9.046875 C 3.8125 -9.046875 4.179688 -9.019531 4.578125 -8.96875 C 4.972656 -8.914062 5.289062 -8.859375 5.53125 -8.796875 L 5.53125 -8 C 5.289062 -8.050781 5.003906 -8.09375 4.671875 -8.125 C 4.335938 -8.164062 4.070312 -8.1875 3.875 -8.1875 C 3.175781 -8.1875 2.6875 -8.117188 2.40625 -7.984375 C 2.125 -7.859375 1.929688 -7.546875 1.828125 -7.046875 C 1.722656 -6.554688 1.671875 -5.695312 1.671875 -4.46875 C 1.671875 -3.34375 1.707031 -2.53125 1.78125 -2.03125 C 1.863281 -1.53125 2.023438 -1.1875 2.265625 -1 C 2.515625 -0.820312 2.914062 -0.734375 3.46875 -0.734375 C 3.914062 -0.734375 4.296875 -0.769531 4.609375 -0.84375 L 4.609375 -3.921875 Z M 3.28125 -3.921875 "/></g></g></g><g fill="rgb(100%, 100%, 100%)" fill-opacity="1"><g transform="translate(172.562026, 267.161702)"><g><path d="M 5.84375 -8.9375 L 5.84375 -3.890625 C 5.84375 -2.722656 5.789062 -1.875 5.6875 -1.34375 C 5.582031 -0.820312 5.359375 -0.445312 5.015625 -0.21875 C 4.671875 0 4.113281 0.109375 3.34375 0.109375 C 2.570312 0.109375 2.007812 0 1.65625 -0.21875 C 1.3125 -0.445312 1.085938 -0.828125 0.984375 -1.359375 C 0.878906 -1.890625 0.828125 -2.734375 0.828125 -3.890625 L 0.828125 -8.9375 L 1.8125 -8.9375 L 1.8125 -3.4375 C 1.8125 -2.613281 1.835938 -2.03125 1.890625 -1.6875 C 1.953125 -1.34375 2.082031 -1.097656 2.28125 -0.953125 C 2.488281 -0.816406 2.84375 -0.75 3.34375 -0.75 C 3.832031 -0.75 4.175781 -0.816406 4.375 -0.953125 C 4.582031 -1.097656 4.710938 -1.34375 4.765625 -1.6875 C 4.828125 -2.03125 4.859375 -2.613281 4.859375 -3.4375 L 4.859375 -8.9375 Z M 5.84375 -8.9375 "/></g></g></g><g fill="rgb(100%, 100%, 100%)" fill-opacity="1"><g transform="translate(183.635993, 267.161702)"><g><path d="M 4.859375 0 L 3.75 -3.59375 L 1.890625 -3.59375 L 1.890625 0 L 0.90625 0 L 0.90625 -8.9375 L 3.640625 -8.9375 C 4.253906 -8.9375 4.710938 -8.820312 5.015625 -8.59375 C 5.316406 -8.375 5.515625 -8.078125 5.609375 -7.703125 C 5.703125 -7.335938 5.75 -6.859375 5.75 -6.265625 C 5.75 -5.617188 5.679688 -5.082031 5.546875 -4.65625 C 5.410156 -4.238281 5.125 -3.941406 4.6875 -3.765625 L 5.890625 0 Z M 3.390625 -4.453125 C 3.796875 -4.453125 4.097656 -4.515625 4.296875 -4.640625 C 4.503906 -4.773438 4.632812 -4.960938 4.6875 -5.203125 C 4.738281 -5.453125 4.765625 -5.804688 4.765625 -6.265625 C 4.765625 -6.734375 4.738281 -7.085938 4.6875 -7.328125 C 4.632812 -7.578125 4.507812 -7.765625 4.3125 -7.890625 C 4.125 -8.023438 3.820312 -8.09375 3.40625 -8.09375 L 1.890625 -8.09375 L 1.890625 -4.453125 Z M 3.390625 -4.453125 "/></g></g></g><g fill="rgb(100%, 100%, 100%)" fill-opacity="1"><g transform="translate(194.437042, 267.161702)"><g><path d="M 6.78125 0 L 6.78125 -7.234375 L 6.734375 -7.234375 L 4.75 0 L 3.859375 0 L 1.890625 -7.234375 L 1.828125 -7.234375 L 1.828125 0 L 0.90625 0 L 0.90625 -8.9375 L 2.3125 -8.9375 L 4.296875 -1.671875 L 4.375 -1.671875 L 6.359375 -8.9375 L 7.734375 -8.9375 L 7.734375 0 Z M 6.78125 0 "/></g></g></g><g fill="rgb(100%, 100%, 100%)" fill-opacity="1"><g transform="translate(207.473406, 267.161702)"><g><path d="M 0.90625 0 L 0.90625 -8.9375 L 5.140625 -8.9375 L 5.140625 -8.09375 L 1.890625 -8.09375 L 1.890625 -4.953125 L 4.703125 -4.953125 L 4.703125 -4.09375 L 1.890625 -4.09375 L 1.890625 -0.859375 L 5.140625 -0.859375 L 5.140625 0 Z M 0.90625 0 "/></g></g></g></svg>