<svg xmlns="http://www.w3.org/2000/svg" xmlns:xlink="http://www.w3.org/1999/xlink" width="40" zoomAndPan="magnify" viewBox="0 0 30 30.000001" height="40" preserveAspectRatio="xMidYMid meet" version="1.0"><defs><clipPath id="id1"><path d="M 15 2.652344 L 23.507812 2.652344 L 23.507812 26.605469 L 15 26.605469 Z M 15 2.652344 " clip-rule="nonzero"/></clipPath><clipPath id="id2"><path d="M 6.816406 2.652344 L 15 2.652344 L 15 23 L 6.816406 23 Z M 6.816406 2.652344 " clip-rule="nonzero"/></clipPath></defs><path fill="rgb(0%, 0%, 0%)" d="M 16.257812 10.171875 L 16.363281 10.085938 L 16.363281 8.480469 L 17.453125 8.480469 L 17.453125 9.339844 C 17.472656 9.328125 17.492188 9.320312 17.511719 9.308594 C 18.011719 9.027344 18.539062 8.785156 19.085938 8.609375 L 19.085938 7.15625 L 17.535156 6.460938 L 16.609375 6.875 L 15.980469 7.15625 L 15.980469 10.40625 L 16.015625 10.375 C 16.09375 10.300781 16.179688 10.238281 16.257812 10.171875 Z M 16.257812 10.171875 " fill-opacity="1" fill-rule="nonzero"/><path fill="rgb(0%, 0%, 0%)" d="M 19.203125 11.167969 C 18.96875 11.296875 18.742188 11.4375 18.527344 11.59375 L 18.363281 11.710938 C 18.308594 11.75 18.277344 11.78125 18.21875 11.832031 L 17.917969 12.09375 L 17.578125 12.453125 C 17.53125 12.5 17.484375 12.5625 17.433594 12.628906 L 17.355469 12.730469 C 17.328125 12.761719 17.308594 12.792969 17.285156 12.820312 C 17.132812 13.027344 17 13.25 16.878906 13.472656 C 17.007812 13.609375 17.132812 13.746094 17.253906 13.890625 C 17.265625 13.867188 17.277344 13.839844 17.289062 13.816406 C 17.429688 13.558594 17.589844 13.320312 17.769531 13.09375 C 17.792969 13.0625 17.816406 13.03125 17.839844 13.003906 L 17.902344 12.929688 C 17.949219 12.875 17.996094 12.816406 18.054688 12.757812 L 18.355469 12.464844 L 18.367188 12.453125 L 18.632812 12.242188 C 18.671875 12.210938 18.730469 12.160156 18.78125 12.128906 L 18.929688 12.03125 C 19.125 11.902344 19.332031 11.789062 19.542969 11.683594 C 19.964844 11.476562 20.417969 11.328125 20.878906 11.242188 C 21.292969 11.164062 21.710938 11.125 22.136719 11.140625 C 22.199219 10.902344 22.253906 10.664062 22.296875 10.417969 C 21.761719 10.40625 21.21875 10.472656 20.699219 10.59375 C 20.171875 10.714844 19.671875 10.910156 19.203125 11.167969 Z M 19.203125 11.167969 " fill-opacity="1" fill-rule="nonzero"/><path fill="rgb(0%, 0%, 0%)" d="M 20.039062 9.710938 C 19.359375 9.90625 18.71875 10.210938 18.128906 10.59375 C 18.054688 10.644531 17.984375 10.6875 17.914062 10.742188 L 17.695312 10.898438 C 17.625 10.949219 17.566406 10.996094 17.5 11.054688 L 17.300781 11.230469 C 17.285156 11.242188 17.273438 11.253906 17.257812 11.265625 C 17.207031 11.3125 17.152344 11.355469 17.101562 11.40625 L 16.917969 11.597656 L 16.738281 11.785156 C 16.683594 11.84375 16.632812 11.90625 16.578125 11.976562 C 16.382812 12.214844 16.210938 12.464844 16.054688 12.722656 C 16.128906 12.785156 16.203125 12.84375 16.277344 12.90625 C 16.332031 12.953125 16.386719 13.003906 16.441406 13.050781 C 16.5625 12.855469 16.691406 12.664062 16.835938 12.484375 C 16.863281 12.449219 16.890625 12.410156 16.921875 12.378906 L 17 12.285156 C 17.054688 12.21875 17.113281 12.148438 17.183594 12.078125 L 17.546875 11.722656 L 17.558594 11.710938 L 17.566406 11.707031 L 17.886719 11.449219 C 17.9375 11.410156 18.007812 11.351562 18.070312 11.3125 L 18.25 11.195312 C 18.484375 11.035156 18.738281 10.898438 18.996094 10.769531 C 19.507812 10.519531 20.0625 10.339844 20.621094 10.234375 C 21.179688 10.132812 21.746094 10.082031 22.320312 10.117188 C 22.324219 10.121094 22.332031 10.121094 22.335938 10.121094 C 22.367188 9.886719 22.382812 9.652344 22.390625 9.414062 C 22.304688 9.410156 22.222656 9.40625 22.140625 9.40625 C 21.433594 9.414062 20.71875 9.519531 20.039062 9.710938 Z M 20.039062 9.710938 " fill-opacity="1" fill-rule="nonzero"/><path fill="rgb(0%, 0%, 0%)" d="M 20.363281 13.929688 C 20.335938 13.949219 20.320312 13.960938 20.300781 13.980469 L 20.140625 14.121094 L 19.988281 14.289062 C 19.96875 14.304688 19.960938 14.320312 19.941406 14.347656 C 19.921875 14.371094 19.898438 14.40625 19.863281 14.445312 L 19.875 14.433594 C 19.757812 14.597656 19.65625 14.769531 19.582031 14.941406 C 20.085938 14.550781 20.535156 14.097656 20.921875 13.59375 C 20.761719 13.667969 20.605469 13.757812 20.457031 13.863281 C 20.421875 13.890625 20.390625 13.910156 20.363281 13.929688 Z M 20.363281 13.929688 " fill-opacity="1" fill-rule="nonzero"/><path fill="rgb(0%, 0%, 0%)" d="M 19.699219 11.980469 C 19.503906 12.089844 19.316406 12.203125 19.136719 12.335938 L 19.003906 12.433594 C 18.960938 12.464844 18.933594 12.488281 18.886719 12.53125 L 18.636719 12.746094 L 18.355469 13.042969 C 18.316406 13.082031 18.277344 13.132812 18.238281 13.1875 L 18.167969 13.273438 C 18.148438 13.300781 18.132812 13.324219 18.113281 13.351562 C 17.957031 13.5625 17.816406 13.792969 17.703125 14.027344 C 17.65625 14.117188 17.621094 14.207031 17.582031 14.300781 C 17.601562 14.324219 17.617188 14.347656 17.636719 14.371094 C 17.761719 14.546875 17.878906 14.726562 17.992188 14.910156 C 18.058594 14.679688 18.148438 14.449219 18.265625 14.234375 C 18.378906 14.03125 18.507812 13.84375 18.652344 13.664062 C 18.671875 13.640625 18.691406 13.613281 18.710938 13.59375 L 18.757812 13.539062 C 18.792969 13.496094 18.832031 13.445312 18.882812 13.398438 L 19.121094 13.171875 L 19.132812 13.160156 L 19.339844 12.996094 C 19.371094 12.972656 19.421875 12.929688 19.464844 12.902344 L 19.582031 12.828125 C 19.734375 12.730469 19.902344 12.640625 20.066406 12.558594 C 20.402344 12.394531 20.765625 12.28125 21.125 12.21875 C 21.34375 12.179688 21.5625 12.15625 21.777344 12.144531 C 21.890625 11.894531 21.988281 11.636719 22.070312 11.371094 C 21.691406 11.378906 21.304688 11.429688 20.933594 11.511719 C 20.5 11.609375 20.085938 11.769531 19.699219 11.980469 Z M 19.699219 11.980469 " fill-opacity="1" fill-rule="nonzero"/><path fill="rgb(0%, 0%, 0%)" d="M 20.214844 12.835938 C 20.066406 12.921875 19.921875 13.015625 19.78125 13.121094 L 19.675781 13.195312 C 19.640625 13.21875 19.625 13.238281 19.585938 13.269531 L 19.394531 13.441406 L 19.171875 13.675781 C 19.148438 13.703125 19.121094 13.742188 19.085938 13.785156 L 19.03125 13.859375 C 19.015625 13.878906 19.003906 13.894531 18.988281 13.914062 C 18.871094 14.082031 18.761719 14.261719 18.675781 14.441406 C 18.496094 14.800781 18.402344 15.25 18.410156 15.683594 C 18.621094 15.574219 18.828125 15.457031 19.027344 15.332031 C 19.050781 15.214844 19.082031 15.101562 19.121094 14.988281 C 19.226562 14.691406 19.398438 14.441406 19.582031 14.210938 L 19.589844 14.203125 L 19.589844 14.199219 C 19.605469 14.183594 19.625 14.160156 19.652344 14.128906 C 19.675781 14.101562 19.710938 14.058594 19.746094 14.027344 L 19.894531 13.890625 L 19.914062 13.871094 L 20.078125 13.742188 C 20.113281 13.710938 20.15625 13.683594 20.191406 13.664062 C 20.222656 13.644531 20.25 13.628906 20.273438 13.613281 L 20.28125 13.605469 C 20.480469 13.484375 20.691406 13.378906 20.917969 13.304688 C 21.003906 13.273438 21.089844 13.253906 21.179688 13.230469 C 21.363281 12.957031 21.527344 12.671875 21.671875 12.371094 C 21.507812 12.394531 21.339844 12.421875 21.179688 12.460938 C 20.835938 12.539062 20.515625 12.667969 20.214844 12.835938 Z M 20.214844 12.835938 " fill-opacity="1" fill-rule="nonzero"/><path fill="rgb(0%, 0%, 0%)" d="M 22.359375 8.429688 C 22.289062 8.425781 22.21875 8.421875 22.152344 8.421875 C 21.335938 8.429688 20.515625 8.546875 19.730469 8.769531 C 19.417969 8.859375 19.117188 8.972656 18.816406 9.097656 C 18.367188 9.289062 17.933594 9.515625 17.527344 9.78125 C 17.527344 9.78125 17.527344 9.78125 17.523438 9.78125 C 17.4375 9.835938 17.359375 9.890625 17.273438 9.949219 L 17.023438 10.128906 C 16.867188 10.242188 16.722656 10.382812 16.566406 10.511719 C 16.492188 10.582031 16.410156 10.644531 16.339844 10.714844 L 16.125 10.933594 L 15.917969 11.152344 C 15.898438 11.171875 15.878906 11.195312 15.859375 11.21875 C 15.816406 11.269531 15.773438 11.320312 15.730469 11.375 C 15.535156 11.613281 15.359375 11.863281 15.199219 12.117188 C 15.21875 12.132812 15.242188 12.144531 15.265625 12.15625 C 15.390625 12.238281 15.519531 12.324219 15.640625 12.414062 C 15.8125 12.15625 15.996094 11.90625 16.195312 11.675781 C 16.253906 11.605469 16.316406 11.53125 16.386719 11.457031 L 16.585938 11.265625 L 16.785156 11.070312 C 16.851562 11.007812 16.925781 10.953125 16.996094 10.894531 L 17.207031 10.722656 C 17.277344 10.664062 17.363281 10.597656 17.441406 10.546875 L 17.449219 10.542969 L 17.667969 10.398438 C 17.742188 10.347656 17.828125 10.296875 17.90625 10.25 C 18.542969 9.867188 19.230469 9.574219 19.949219 9.394531 C 20.667969 9.214844 21.402344 9.128906 22.144531 9.144531 C 22.226562 9.148438 22.308594 9.15625 22.394531 9.160156 L 22.394531 9.097656 C 22.394531 8.867188 22.378906 8.644531 22.359375 8.429688 Z M 22.359375 8.429688 " fill-opacity="1" fill-rule="nonzero"/><path fill="rgb(0%, 0%, 0%)" d="M 10.191406 13.992188 C 9.941406 13.921875 9.683594 13.867188 9.421875 13.828125 C 9.519531 13.945312 9.621094 14.058594 9.726562 14.171875 C 9.773438 14.179688 9.820312 14.1875 9.863281 14.199219 C 10.765625 14.417969 11.625 14.878906 12.265625 15.59375 C 12.394531 15.738281 12.507812 15.890625 12.609375 16.054688 C 12.761719 16.109375 12.917969 16.15625 13.074219 16.199219 C 12.972656 16.019531 12.859375 15.839844 12.726562 15.675781 C 12.105469 14.878906 11.1875 14.300781 10.191406 13.992188 Z M 10.191406 13.992188 " fill-opacity="1" fill-rule="nonzero"/><path fill="rgb(0%, 0%, 0%)" d="M 12.300781 10.894531 C 12.484375 10.9375 12.664062 10.988281 12.84375 11.042969 C 12.886719 11.058594 12.929688 11.070312 12.972656 11.085938 C 12.996094 11.09375 13.019531 11.097656 13.042969 11.105469 C 13.429688 11.234375 13.8125 11.386719 14.1875 11.5625 C 13.824219 11.363281 13.441406 11.1875 13.050781 11.03125 C 13.023438 11.019531 12.996094 11.007812 12.96875 10.996094 L 12.957031 10.710938 L 12.941406 10.320312 L 13 10.695312 C 13.152344 10.640625 13.261719 10.4375 13.261719 10.089844 C 13.261719 9.671875 13.050781 9.078125 12.90625 9.078125 C 12.765625 9.078125 12.550781 9.671875 12.550781 10.089844 C 12.550781 10.46875 12.683594 10.675781 12.855469 10.710938 L 12.847656 10.949219 C 12.5625 10.84375 12.277344 10.746094 11.980469 10.664062 L 11.976562 10.664062 C 11.914062 10.644531 11.847656 10.628906 11.78125 10.613281 C 11.742188 10.605469 11.703125 10.59375 11.664062 10.585938 L 11.644531 10.097656 L 11.621094 9.550781 L 11.699219 10.078125 C 11.914062 10 12.070312 9.714844 12.070312 9.226562 C 12.070312 8.644531 11.773438 7.8125 11.570312 7.8125 C 11.371094 7.8125 11.070312 8.644531 11.070312 9.226562 C 11.070312 9.757812 11.257812 10.046875 11.5 10.097656 L 11.480469 10.542969 C 11.074219 10.453125 10.679688 10.390625 10.296875 10.355469 C 10.246094 10.351562 10.199219 10.347656 10.152344 10.34375 L 10.128906 9.765625 L 10.097656 9.058594 L 10.203125 9.742188 C 10.480469 9.636719 10.683594 9.265625 10.683594 8.636719 C 10.683594 7.878906 10.300781 6.796875 10.035156 6.796875 C 9.777344 6.796875 9.386719 7.878906 9.386719 8.636719 C 9.386719 9.324219 9.628906 9.703125 9.941406 9.765625 L 9.917969 10.328125 C 9.195312 10.285156 8.515625 10.328125 7.867188 10.441406 C 7.871094 10.46875 7.875 10.496094 7.878906 10.523438 C 7.890625 10.585938 7.902344 10.652344 7.917969 10.714844 C 7.925781 10.757812 7.9375 10.800781 7.945312 10.84375 C 7.949219 10.84375 7.949219 10.84375 7.949219 10.84375 C 9.371094 10.53125 10.871094 10.554688 12.300781 10.894531 Z M 12.300781 10.894531 " fill-opacity="1" fill-rule="nonzero"/><path fill="rgb(0%, 0%, 0%)" d="M 13.785156 15.589844 C 13.753906 15.546875 13.722656 15.507812 13.691406 15.464844 C 13.640625 15.402344 13.59375 15.335938 13.542969 15.273438 C 13.304688 14.988281 13.03125 14.730469 12.734375 14.5 C 12.640625 14.425781 12.542969 14.351562 12.441406 14.28125 C 11.917969 13.921875 11.332031 13.636719 10.714844 13.457031 C 10.277344 13.328125 9.824219 13.246094 9.363281 13.214844 C 9.230469 13.207031 9.09375 13.203125 8.960938 13.203125 C 9.015625 13.289062 9.074219 13.371094 9.132812 13.453125 C 9.328125 13.460938 9.519531 13.480469 9.714844 13.507812 C 9.910156 13.535156 10.101562 13.566406 10.292969 13.613281 C 10.984375 13.785156 11.648438 14.074219 12.238281 14.480469 C 12.582031 14.71875 12.898438 14.992188 13.175781 15.308594 C 13.296875 15.445312 13.402344 15.589844 13.507812 15.742188 C 13.566406 15.824219 13.625 15.910156 13.675781 16 C 13.746094 16.121094 13.8125 16.25 13.871094 16.378906 C 13.949219 16.390625 14.03125 16.402344 14.113281 16.414062 C 14.15625 16.421875 14.199219 16.425781 14.246094 16.429688 C 14.199219 16.320312 14.152344 16.214844 14.097656 16.105469 C 14.003906 15.929688 13.902344 15.753906 13.785156 15.589844 Z M 13.785156 15.589844 " fill-opacity="1" fill-rule="nonzero"/><path fill="rgb(0%, 0%, 0%)" d="M 14.910156 15.359375 C 14.828125 15.246094 14.742188 15.136719 14.65625 15.027344 C 14.515625 14.863281 14.367188 14.707031 14.214844 14.554688 C 14.132812 14.476562 14.050781 14.398438 13.964844 14.324219 C 13.933594 14.296875 13.902344 14.269531 13.871094 14.242188 C 13.824219 14.203125 13.78125 14.164062 13.738281 14.128906 C 13.300781 13.777344 12.820312 13.480469 12.308594 13.238281 C 11.277344 12.746094 10.125 12.503906 8.964844 12.535156 C 8.898438 12.535156 8.828125 12.542969 8.761719 12.546875 C 8.699219 12.550781 8.640625 12.554688 8.578125 12.558594 C 8.625 12.648438 8.675781 12.738281 8.726562 12.828125 C 8.808594 12.824219 8.894531 12.820312 8.976562 12.820312 C 9.601562 12.804688 10.230469 12.871094 10.835938 13.011719 C 11.507812 13.183594 12.15625 13.4375 12.757812 13.792969 C 13.066406 13.972656 13.355469 14.175781 13.628906 14.40625 C 13.640625 14.414062 13.648438 14.425781 13.660156 14.433594 C 13.707031 14.472656 13.753906 14.519531 13.800781 14.558594 C 13.925781 14.671875 14.042969 14.785156 14.160156 14.90625 C 14.230469 14.984375 14.304688 15.058594 14.375 15.136719 C 14.457031 15.230469 14.535156 15.332031 14.609375 15.433594 C 14.832031 15.722656 15.023438 16.039062 15.1875 16.375 C 15.203125 16.40625 15.21875 16.441406 15.234375 16.476562 C 15.332031 16.472656 15.433594 16.46875 15.53125 16.464844 C 15.425781 16.214844 15.300781 15.972656 15.160156 15.738281 C 15.082031 15.609375 14.996094 15.480469 14.910156 15.359375 Z M 14.910156 15.359375 " fill-opacity="1" fill-rule="nonzero"/><path fill="rgb(0%, 0%, 0%)" d="M 15.988281 15.089844 C 15.914062 14.980469 15.832031 14.878906 15.75 14.777344 C 15.628906 14.621094 15.5 14.472656 15.363281 14.324219 C 15.234375 14.191406 15.105469 14.058594 14.964844 13.929688 C 14.949219 13.917969 14.933594 13.902344 14.921875 13.890625 C 14.785156 13.765625 14.644531 13.644531 14.496094 13.53125 C 14.386719 13.445312 14.28125 13.363281 14.167969 13.28125 C 14.121094 13.25 14.074219 13.222656 14.03125 13.191406 C 13.335938 12.726562 12.5625 12.363281 11.753906 12.128906 C 10.652344 11.8125 9.480469 11.714844 8.335938 11.871094 C 8.3125 11.875 8.292969 11.878906 8.269531 11.882812 C 8.304688 11.976562 8.34375 12.070312 8.386719 12.160156 C 8.421875 12.15625 8.453125 12.148438 8.488281 12.144531 C 8.640625 12.125 8.792969 12.109375 8.945312 12.097656 C 10.683594 11.96875 12.484375 12.449219 13.9375 13.453125 C 13.980469 13.484375 14.023438 13.511719 14.066406 13.542969 C 14.183594 13.625 14.296875 13.714844 14.40625 13.804688 C 14.507812 13.886719 14.605469 13.96875 14.699219 14.058594 C 14.746094 14.097656 14.789062 14.136719 14.832031 14.175781 C 14.988281 14.328125 15.140625 14.488281 15.285156 14.65625 C 15.363281 14.742188 15.4375 14.828125 15.507812 14.917969 C 15.570312 14.996094 15.625 15.082031 15.683594 15.164062 C 15.921875 15.5 16.125 15.863281 16.289062 16.242188 C 16.308594 16.285156 16.324219 16.328125 16.339844 16.371094 C 16.445312 16.351562 16.550781 16.332031 16.65625 16.308594 C 16.546875 16.046875 16.421875 15.792969 16.28125 15.550781 C 16.191406 15.390625 16.09375 15.238281 15.988281 15.089844 Z M 15.988281 15.089844 " fill-opacity="1" fill-rule="nonzero"/><path fill="rgb(0%, 0%, 0%)" d="M 16.96875 14.835938 C 16.953125 14.8125 16.941406 14.796875 16.925781 14.777344 C 16.804688 14.601562 16.675781 14.429688 16.539062 14.261719 C 16.390625 14.085938 16.234375 13.914062 16.074219 13.75 C 15.964844 13.636719 15.855469 13.527344 15.738281 13.421875 C 15.726562 13.410156 15.714844 13.398438 15.703125 13.386719 C 15.5625 13.261719 15.421875 13.140625 15.277344 13.023438 C 15.148438 12.921875 15.015625 12.816406 14.878906 12.71875 C 14.871094 12.714844 14.867188 12.710938 14.859375 12.707031 C 14.753906 12.632812 14.640625 12.5625 14.527344 12.492188 C 14.484375 12.464844 14.445312 12.4375 14.402344 12.410156 C 13.707031 11.980469 12.953125 11.636719 12.164062 11.394531 C 11.1875 11.113281 10.160156 10.972656 9.132812 11.015625 C 8.761719 11.027344 8.394531 11.066406 8.027344 11.132812 C 8.023438 11.132812 8.019531 11.132812 8.019531 11.132812 C 8.050781 11.246094 8.082031 11.355469 8.117188 11.464844 C 8.128906 11.464844 8.136719 11.460938 8.148438 11.460938 C 9.382812 11.21875 10.679688 11.261719 11.910156 11.5625 C 12.75 11.777344 13.566406 12.117188 14.316406 12.570312 C 14.363281 12.597656 14.40625 12.621094 14.449219 12.648438 C 14.5625 12.714844 14.667969 12.792969 14.773438 12.867188 C 14.921875 12.964844 15.066406 13.070312 15.203125 13.179688 C 15.34375 13.289062 15.476562 13.398438 15.609375 13.515625 C 15.617188 13.523438 15.625 13.53125 15.636719 13.539062 C 15.765625 13.65625 15.886719 13.78125 16.007812 13.90625 C 16.171875 14.078125 16.332031 14.253906 16.480469 14.441406 C 16.53125 14.503906 16.585938 14.566406 16.636719 14.628906 C 16.71875 14.742188 16.800781 14.859375 16.878906 14.976562 C 17.023438 15.195312 17.160156 15.421875 17.28125 15.660156 C 17.351562 15.796875 17.417969 15.9375 17.480469 16.078125 C 17.53125 16.058594 17.582031 16.042969 17.632812 16.023438 C 17.535156 15.804688 17.425781 15.589844 17.308594 15.378906 C 17.203125 15.195312 17.089844 15.011719 16.96875 14.835938 Z M 16.96875 14.835938 " fill-opacity="1" fill-rule="nonzero"/><path fill="rgb(100%, 100%, 100%)" d="M 22.144531 9.144531 C 21.40625 9.128906 20.667969 9.214844 19.953125 9.394531 C 19.234375 9.574219 18.542969 9.867188 17.90625 10.25 C 17.828125 10.296875 17.746094 10.347656 17.667969 10.398438 L 17.449219 10.542969 L 17.441406 10.546875 C 17.363281 10.597656 17.277344 10.664062 17.210938 10.71875 L 16.996094 10.894531 C 16.925781 10.953125 16.851562 11.007812 16.785156 11.070312 L 16.589844 11.261719 L 16.390625 11.457031 C 16.316406 11.53125 16.253906 11.605469 16.195312 11.675781 C 16 11.90625 15.8125 12.15625 15.644531 12.410156 C 15.519531 12.324219 15.394531 12.238281 15.265625 12.15625 C 15.242188 12.144531 15.222656 12.128906 15.199219 12.117188 C 15.363281 11.863281 15.535156 11.609375 15.730469 11.375 C 15.773438 11.316406 15.816406 11.269531 15.859375 11.21875 C 15.878906 11.195312 15.898438 11.171875 15.917969 11.152344 L 16.125 10.933594 L 16.339844 10.714844 C 16.410156 10.644531 16.492188 10.582031 16.566406 10.511719 C 16.722656 10.382812 16.871094 10.242188 17.023438 10.128906 L 17.277344 9.949219 C 17.359375 9.890625 17.4375 9.835938 17.527344 9.78125 C 17.9375 9.515625 18.371094 9.289062 18.820312 9.097656 C 19.117188 8.972656 19.421875 8.859375 19.730469 8.769531 C 20.515625 8.546875 21.335938 8.429688 22.152344 8.421875 C 22.222656 8.421875 22.289062 8.425781 22.359375 8.429688 C 22.351562 8.34375 22.339844 8.261719 22.328125 8.183594 C 22.324219 8.175781 22.324219 8.167969 22.324219 8.160156 C 22.269531 8.160156 22.210938 8.152344 22.15625 8.152344 C 21.925781 8.144531 21.691406 8.152344 21.460938 8.164062 L 21.460938 6.992188 L 19.691406 6.195312 L 17.535156 6.195312 L 16.464844 6.675781 C 15.570312 5.574219 14.203125 4.871094 12.667969 4.871094 C 9.980469 4.871094 7.804688 7.027344 7.804688 9.6875 C 7.804688 9.941406 7.828125 10.191406 7.867188 10.4375 C 8.515625 10.328125 9.199219 10.285156 9.921875 10.324219 L 9.941406 9.765625 C 9.628906 9.703125 9.386719 9.324219 9.386719 8.632812 C 9.386719 7.878906 9.777344 6.792969 10.035156 6.792969 C 10.300781 6.792969 10.683594 7.878906 10.683594 8.632812 C 10.683594 9.265625 10.480469 9.636719 10.203125 9.742188 L 10.101562 9.058594 L 10.128906 9.765625 L 10.152344 10.34375 C 10.199219 10.347656 10.246094 10.347656 10.296875 10.355469 C 10.679688 10.390625 11.074219 10.453125 11.484375 10.542969 L 11.5 10.09375 C 11.257812 10.046875 11.070312 9.753906 11.070312 9.226562 C 11.070312 8.644531 11.371094 7.8125 11.570312 7.8125 C 11.773438 7.8125 12.070312 8.644531 12.070312 9.226562 C 12.070312 9.710938 11.914062 9.996094 11.703125 10.078125 L 11.621094 9.550781 L 11.644531 10.09375 L 11.664062 10.585938 C 11.703125 10.59375 11.742188 10.601562 11.78125 10.613281 C 11.847656 10.628906 11.914062 10.644531 11.980469 10.660156 L 11.980469 10.664062 C 12.277344 10.746094 12.566406 10.84375 12.847656 10.945312 L 12.855469 10.707031 C 12.683594 10.671875 12.550781 10.464844 12.550781 10.085938 C 12.550781 9.671875 12.765625 9.078125 12.90625 9.078125 C 13.050781 9.078125 13.265625 9.671875 13.265625 10.085938 C 13.265625 10.433594 13.152344 10.636719 13 10.695312 L 12.941406 10.320312 L 12.957031 10.707031 L 12.96875 10.996094 C 12.996094 11.007812 13.023438 11.019531 13.050781 11.027344 C 13.445312 11.1875 13.824219 11.359375 14.1875 11.5625 C 13.816406 11.386719 13.433594 11.234375 13.042969 11.105469 C 13.019531 11.097656 12.996094 11.09375 12.972656 11.085938 C 12.929688 11.070312 12.886719 11.058594 12.84375 11.042969 C 12.664062 10.988281 12.484375 10.9375 12.300781 10.890625 C 10.875 10.554688 9.371094 10.53125 7.949219 10.84375 C 7.949219 10.84375 7.949219 10.84375 7.945312 10.84375 C 7.96875 10.941406 7.992188 11.035156 8.019531 11.132812 C 8.019531 11.128906 8.023438 11.128906 8.027344 11.128906 C 8.394531 11.066406 8.765625 11.027344 9.136719 11.011719 C 10.160156 10.972656 11.1875 11.109375 12.164062 11.394531 C 12.953125 11.636719 13.707031 11.980469 14.402344 12.410156 C 14.445312 12.4375 14.488281 12.464844 14.53125 12.492188 C 14.640625 12.5625 14.753906 12.632812 14.859375 12.707031 C 14.867188 12.710938 14.875 12.714844 14.878906 12.71875 C 15.015625 12.816406 15.148438 12.917969 15.277344 13.023438 C 15.421875 13.140625 15.566406 13.261719 15.703125 13.386719 C 15.714844 13.398438 15.726562 13.40625 15.738281 13.417969 C 15.855469 13.527344 15.964844 13.636719 16.074219 13.746094 C 16.238281 13.914062 16.390625 14.085938 16.539062 14.261719 C 16.675781 14.425781 16.804688 14.597656 16.925781 14.773438 C 16.941406 14.792969 16.957031 14.8125 16.96875 14.832031 C 17.089844 15.011719 17.203125 15.191406 17.308594 15.378906 C 17.429688 15.589844 17.535156 15.804688 17.632812 16.023438 C 17.707031 15.996094 17.777344 15.96875 17.847656 15.941406 C 17.925781 15.910156 18.003906 15.875 18.082031 15.839844 C 18.191406 15.792969 18.300781 15.738281 18.410156 15.683594 C 18.40625 15.25 18.496094 14.800781 18.675781 14.441406 C 18.765625 14.261719 18.871094 14.082031 18.992188 13.914062 C 19.007812 13.894531 19.015625 13.875 19.035156 13.859375 L 19.089844 13.785156 C 19.121094 13.742188 19.148438 13.703125 19.175781 13.675781 L 19.394531 13.441406 L 19.589844 13.269531 C 19.628906 13.238281 19.644531 13.21875 19.675781 13.195312 L 19.78125 13.117188 C 19.921875 13.015625 20.066406 12.921875 20.21875 12.835938 C 20.519531 12.667969 20.839844 12.539062 21.179688 12.460938 C 21.34375 12.421875 21.507812 12.394531 21.675781 12.371094 C 21.710938 12.296875 21.746094 12.21875 21.78125 12.140625 C 21.5625 12.152344 21.34375 12.179688 21.128906 12.214844 C 20.765625 12.28125 20.402344 12.394531 20.070312 12.558594 C 19.902344 12.636719 19.738281 12.726562 19.582031 12.828125 L 19.464844 12.902344 C 19.425781 12.925781 19.375 12.96875 19.34375 12.992188 L 19.136719 13.15625 L 19.132812 13.160156 L 19.121094 13.167969 L 18.886719 13.394531 C 18.835938 13.445312 18.796875 13.492188 18.761719 13.535156 L 18.714844 13.589844 C 18.695312 13.613281 18.675781 13.636719 18.65625 13.660156 C 18.511719 13.839844 18.382812 14.03125 18.269531 14.234375 C 18.152344 14.449219 18.0625 14.675781 17.996094 14.910156 C 17.882812 14.726562 17.765625 14.542969 17.636719 14.371094 C 17.621094 14.347656 17.601562 14.324219 17.582031 14.300781 C 17.621094 14.207031 17.660156 14.113281 17.703125 14.023438 C 17.820312 13.789062 17.960938 13.5625 18.113281 13.347656 C 18.132812 13.324219 18.152344 13.296875 18.171875 13.273438 L 18.238281 13.1875 C 18.28125 13.132812 18.316406 13.082031 18.355469 13.042969 L 18.636719 12.746094 L 18.886719 12.527344 C 18.933594 12.488281 18.960938 12.460938 19.003906 12.429688 L 19.140625 12.332031 C 19.320312 12.203125 19.507812 12.085938 19.699219 11.980469 C 20.085938 11.765625 20.5 11.605469 20.9375 11.507812 C 21.308594 11.425781 21.691406 11.375 22.074219 11.367188 C 22.097656 11.292969 22.117188 11.214844 22.136719 11.140625 C 21.714844 11.125 21.296875 11.164062 20.878906 11.242188 C 20.421875 11.328125 19.964844 11.476562 19.542969 11.683594 C 19.332031 11.789062 19.125 11.902344 18.933594 12.03125 L 18.785156 12.125 C 18.734375 12.160156 18.675781 12.207031 18.636719 12.242188 L 18.371094 12.453125 L 18.367188 12.457031 L 18.355469 12.464844 L 18.054688 12.757812 C 17.996094 12.816406 17.949219 12.875 17.90625 12.929688 L 17.84375 13.003906 C 17.816406 13.03125 17.792969 13.0625 17.769531 13.089844 C 17.589844 13.320312 17.429688 13.558594 17.292969 13.8125 C 17.277344 13.839844 17.269531 13.863281 17.257812 13.890625 C 17.136719 13.746094 17.011719 13.605469 16.882812 13.472656 C 17.003906 13.246094 17.136719 13.027344 17.285156 12.820312 C 17.308594 12.789062 17.332031 12.757812 17.355469 12.730469 L 17.4375 12.625 C 17.488281 12.558594 17.535156 12.5 17.578125 12.449219 L 17.921875 12.09375 L 18.222656 11.832031 C 18.277344 11.78125 18.3125 11.75 18.363281 11.710938 L 18.527344 11.59375 C 18.742188 11.433594 18.96875 11.296875 19.203125 11.164062 C 19.671875 10.90625 20.171875 10.714844 20.699219 10.59375 C 21.21875 10.476562 21.765625 10.40625 22.296875 10.417969 C 22.3125 10.320312 22.328125 10.21875 22.339844 10.121094 C 22.332031 10.121094 22.328125 10.117188 22.320312 10.117188 C 21.75 10.082031 21.183594 10.128906 20.621094 10.234375 C 20.0625 10.339844 19.511719 10.519531 18.996094 10.769531 C 18.738281 10.894531 18.488281 11.035156 18.25 11.195312 L 18.070312 11.308594 C 18.011719 11.351562 17.9375 11.410156 17.890625 11.449219 L 17.566406 11.707031 L 17.550781 11.722656 L 17.183594 12.078125 C 17.113281 12.148438 17.054688 12.21875 17 12.285156 L 16.921875 12.378906 C 16.894531 12.410156 16.867188 12.449219 16.835938 12.484375 C 16.695312 12.664062 16.566406 12.855469 16.445312 13.050781 C 16.390625 13.003906 16.335938 12.953125 16.277344 12.90625 C 16.207031 12.84375 16.132812 12.78125 16.054688 12.722656 C 16.214844 12.464844 16.386719 12.214844 16.578125 11.976562 C 16.632812 11.90625 16.683594 11.84375 16.738281 11.785156 L 16.921875 11.597656 L 17.105469 11.40625 C 17.152344 11.355469 17.207031 11.3125 17.261719 11.265625 C 17.273438 11.253906 17.289062 11.242188 17.300781 11.230469 L 17.503906 11.054688 C 17.570312 10.996094 17.625 10.949219 17.695312 10.898438 L 17.914062 10.742188 C 17.988281 10.6875 18.054688 10.644531 18.128906 10.59375 C 18.71875 10.210938 19.363281 9.90625 20.042969 9.710938 C 20.722656 9.515625 21.433594 9.414062 22.140625 9.40625 C 22.226562 9.40625 22.308594 9.410156 22.390625 9.414062 C 22.394531 9.355469 22.394531 9.296875 22.394531 9.234375 L 22.394531 9.160156 C 22.308594 9.15625 22.226562 9.148438 22.144531 9.144531 Z M 17.535156 6.460938 L 19.085938 7.15625 L 19.085938 8.609375 C 18.539062 8.789062 18.011719 9.027344 17.511719 9.308594 C 17.492188 9.320312 17.472656 9.332031 17.457031 9.339844 L 17.457031 8.480469 L 16.363281 8.480469 L 16.363281 10.085938 L 16.257812 10.171875 C 16.179688 10.238281 16.09375 10.300781 16.015625 10.375 L 15.980469 10.410156 L 15.980469 7.15625 L 16.609375 6.875 Z M 19.640625 8.445312 C 19.535156 8.46875 19.433594 8.503906 19.328125 8.535156 L 19.328125 7.15625 L 21.207031 7.140625 L 21.214844 7.144531 L 21.214844 8.1875 C 20.6875 8.230469 20.160156 8.3125 19.640625 8.445312 Z M 19.640625 8.445312 " fill-opacity="1" fill-rule="nonzero"/><path fill="rgb(100%, 100%, 100%)" d="M 20.28125 13.605469 L 20.273438 13.613281 C 20.25 13.628906 20.222656 13.644531 20.191406 13.664062 C 20.15625 13.683594 20.113281 13.714844 20.078125 13.746094 L 19.914062 13.871094 L 19.894531 13.890625 L 19.746094 14.03125 C 19.710938 14.058594 19.675781 14.101562 19.652344 14.132812 C 19.625 14.164062 19.605469 14.1875 19.589844 14.203125 L 19.582031 14.214844 C 19.394531 14.441406 19.226562 14.695312 19.121094 14.988281 C 19.082031 15.101562 19.050781 15.21875 19.027344 15.332031 C 19.21875 15.210938 19.402344 15.082031 19.582031 14.945312 C 19.65625 14.769531 19.757812 14.597656 19.875 14.433594 L 19.863281 14.445312 C 19.898438 14.410156 19.921875 14.375 19.9375 14.347656 C 19.960938 14.320312 19.96875 14.304688 19.988281 14.289062 L 20.140625 14.121094 L 20.300781 13.984375 C 20.316406 13.964844 20.332031 13.953125 20.363281 13.929688 C 20.386719 13.914062 20.421875 13.890625 20.453125 13.863281 C 20.601562 13.761719 20.761719 13.671875 20.921875 13.59375 C 21.011719 13.476562 21.097656 13.355469 21.179688 13.234375 C 21.089844 13.253906 21.003906 13.273438 20.917969 13.304688 C 20.691406 13.382812 20.480469 13.488281 20.28125 13.605469 Z M 20.28125 13.605469 " fill-opacity="1" fill-rule="nonzero"/><path fill="rgb(100%, 100%, 100%)" d="M 16.878906 14.976562 C 16.800781 14.859375 16.71875 14.742188 16.636719 14.628906 C 16.585938 14.566406 16.53125 14.507812 16.480469 14.441406 C 16.328125 14.257812 16.171875 14.078125 16.007812 13.90625 C 15.886719 13.78125 15.765625 13.65625 15.636719 13.539062 C 15.625 13.53125 15.617188 13.523438 15.609375 13.515625 C 15.476562 13.398438 15.339844 13.289062 15.203125 13.179688 C 15.066406 13.070312 14.921875 12.96875 14.773438 12.867188 C 14.667969 12.792969 14.5625 12.71875 14.449219 12.648438 C 14.40625 12.621094 14.359375 12.597656 14.316406 12.570312 C 13.566406 12.117188 12.75 11.777344 11.90625 11.5625 C 10.679688 11.261719 9.382812 11.222656 8.148438 11.460938 C 8.136719 11.464844 8.128906 11.464844 8.117188 11.46875 C 8.164062 11.609375 8.214844 11.746094 8.269531 11.882812 C 8.289062 11.878906 8.3125 11.875 8.335938 11.875 C 9.476562 11.71875 10.652344 11.8125 11.753906 12.128906 C 12.5625 12.367188 13.335938 12.730469 14.03125 13.195312 C 14.074219 13.222656 14.121094 13.253906 14.164062 13.285156 C 14.28125 13.363281 14.386719 13.449219 14.496094 13.535156 C 14.640625 13.648438 14.785156 13.765625 14.921875 13.890625 C 14.933594 13.90625 14.949219 13.917969 14.964844 13.933594 C 15.101562 14.058594 15.234375 14.191406 15.363281 14.328125 C 15.5 14.472656 15.625 14.621094 15.75 14.777344 C 15.828125 14.882812 15.914062 14.984375 15.988281 15.089844 C 16.09375 15.238281 16.1875 15.394531 16.28125 15.550781 C 16.421875 15.796875 16.546875 16.050781 16.652344 16.308594 C 16.699219 16.300781 16.746094 16.289062 16.792969 16.277344 C 16.960938 16.238281 17.125 16.195312 17.289062 16.144531 C 17.355469 16.125 17.414062 16.101562 17.476562 16.078125 C 17.417969 15.9375 17.351562 15.796875 17.28125 15.660156 C 17.160156 15.425781 17.023438 15.195312 16.878906 14.976562 Z M 16.878906 14.976562 " fill-opacity="1" fill-rule="nonzero"/><path fill="rgb(100%, 100%, 100%)" d="M 15.683594 15.164062 C 15.625 15.082031 15.570312 15 15.507812 14.917969 C 15.4375 14.828125 15.363281 14.742188 15.285156 14.65625 C 15.140625 14.488281 14.988281 14.328125 14.832031 14.175781 C 14.789062 14.136719 14.742188 14.097656 14.699219 14.058594 C 14.605469 13.972656 14.507812 13.886719 14.40625 13.804688 C 14.296875 13.714844 14.183594 13.628906 14.066406 13.542969 C 14.023438 13.511719 13.980469 13.484375 13.9375 13.453125 C 12.484375 12.449219 10.683594 11.96875 8.945312 12.101562 C 8.792969 12.109375 8.640625 12.125 8.488281 12.144531 C 8.453125 12.148438 8.421875 12.15625 8.386719 12.160156 C 8.445312 12.296875 8.511719 12.429688 8.578125 12.558594 C 8.640625 12.554688 8.699219 12.554688 8.761719 12.550781 C 8.828125 12.542969 8.898438 12.539062 8.964844 12.535156 C 10.125 12.507812 11.277344 12.746094 12.3125 13.242188 C 12.820312 13.480469 13.300781 13.78125 13.738281 14.128906 C 13.78125 14.167969 13.824219 14.207031 13.871094 14.242188 C 13.902344 14.269531 13.933594 14.296875 13.964844 14.324219 C 14.050781 14.398438 14.132812 14.476562 14.214844 14.554688 C 14.367188 14.707031 14.515625 14.863281 14.65625 15.03125 C 14.742188 15.136719 14.828125 15.246094 14.910156 15.359375 C 14.996094 15.484375 15.082031 15.609375 15.160156 15.738281 C 15.300781 15.972656 15.425781 16.214844 15.53125 16.464844 C 15.574219 16.460938 15.617188 16.457031 15.660156 16.457031 C 15.875 16.4375 16.089844 16.414062 16.296875 16.378906 C 16.3125 16.375 16.324219 16.375 16.339844 16.371094 C 16.324219 16.328125 16.308594 16.289062 16.289062 16.246094 C 16.125 15.863281 15.921875 15.5 15.683594 15.164062 Z M 15.683594 15.164062 " fill-opacity="1" fill-rule="nonzero"/><path fill="rgb(100%, 100%, 100%)" d="M 14.609375 15.433594 C 14.535156 15.332031 14.457031 15.230469 14.375 15.136719 C 14.304688 15.058594 14.230469 14.984375 14.160156 14.90625 C 14.042969 14.789062 13.925781 14.671875 13.800781 14.5625 C 13.753906 14.519531 13.710938 14.476562 13.660156 14.433594 C 13.652344 14.425781 13.640625 14.414062 13.632812 14.40625 C 13.355469 14.175781 13.066406 13.972656 12.757812 13.792969 C 12.15625 13.4375 11.507812 13.183594 10.835938 13.011719 C 10.230469 12.871094 9.601562 12.804688 8.976562 12.820312 C 8.894531 12.824219 8.808594 12.824219 8.726562 12.828125 C 8.800781 12.957031 8.878906 13.082031 8.957031 13.203125 C 9.09375 13.203125 9.230469 13.207031 9.363281 13.214844 C 9.824219 13.246094 10.277344 13.328125 10.714844 13.457031 C 11.332031 13.636719 11.917969 13.921875 12.441406 14.28125 C 12.542969 14.351562 12.640625 14.425781 12.734375 14.5 C 13.03125 14.730469 13.304688 14.988281 13.539062 15.273438 C 13.59375 15.335938 13.640625 15.402344 13.691406 15.464844 C 13.71875 15.507812 13.753906 15.546875 13.785156 15.589844 C 13.902344 15.753906 14.003906 15.929688 14.09375 16.105469 C 14.148438 16.214844 14.199219 16.320312 14.242188 16.429688 C 14.367188 16.445312 14.492188 16.457031 14.617188 16.464844 C 14.769531 16.472656 14.921875 16.480469 15.078125 16.480469 C 15.117188 16.480469 15.160156 16.476562 15.199219 16.476562 C 15.210938 16.476562 15.222656 16.476562 15.234375 16.476562 C 15.21875 16.441406 15.203125 16.410156 15.1875 16.375 C 15.027344 16.039062 14.832031 15.722656 14.609375 15.433594 Z M 14.609375 15.433594 " fill-opacity="1" fill-rule="nonzero"/><path fill="rgb(100%, 100%, 100%)" d="M 13.507812 15.742188 C 13.402344 15.589844 13.296875 15.445312 13.175781 15.308594 C 12.898438 14.992188 12.582031 14.71875 12.238281 14.480469 C 11.648438 14.074219 10.980469 13.785156 10.292969 13.613281 C 10.101562 13.566406 9.910156 13.535156 9.714844 13.507812 C 9.519531 13.480469 9.328125 13.460938 9.132812 13.453125 C 9.226562 13.582031 9.320312 13.707031 9.421875 13.828125 C 9.683594 13.867188 9.9375 13.921875 10.191406 13.992188 C 11.1875 14.300781 12.105469 14.878906 12.726562 15.675781 C 12.859375 15.839844 12.972656 16.019531 13.074219 16.203125 C 13.21875 16.242188 13.367188 16.28125 13.519531 16.3125 C 13.578125 16.324219 13.632812 16.335938 13.691406 16.347656 C 13.75 16.359375 13.808594 16.371094 13.871094 16.378906 C 13.8125 16.25 13.746094 16.121094 13.675781 16 C 13.625 15.910156 13.566406 15.824219 13.507812 15.742188 Z M 13.507812 15.742188 " fill-opacity="1" fill-rule="nonzero"/><path fill="rgb(100%, 100%, 100%)" d="M 9.863281 14.199219 C 9.816406 14.1875 9.769531 14.179688 9.726562 14.171875 C 10.515625 15.007812 11.5 15.660156 12.609375 16.054688 C 12.507812 15.894531 12.390625 15.738281 12.265625 15.597656 C 11.625 14.878906 10.765625 14.417969 9.863281 14.199219 Z M 9.863281 14.199219 " fill-opacity="1" fill-rule="nonzero"/><path fill="rgb(0%, 0%, 0%)" d="M 19.640625 8.445312 C 19.535156 8.46875 19.433594 8.503906 19.328125 8.535156 L 19.328125 7.15625 L 21.207031 7.140625 L 21.214844 7.144531 L 21.214844 8.1875 C 20.6875 8.230469 20.160156 8.3125 19.640625 8.445312 Z M 19.640625 8.445312 " fill-opacity="1" fill-rule="nonzero"/><g clip-path="url(#id1)"><path fill="rgb(100%, 100%, 100%)" d="M 15.511719 26.46875 C 15.476562 25.351562 15.460938 24.234375 15.433594 23.117188 L 15.410156 21.441406 C 15.40625 20.859375 15.488281 20.273438 15.65625 19.714844 C 15.824219 19.152344 16.074219 18.613281 16.414062 18.128906 C 16.753906 17.644531 17.171875 17.214844 17.652344 16.863281 C 17.894531 16.683594 18.152344 16.535156 18.417969 16.398438 C 18.664062 16.277344 18.902344 16.152344 19.132812 16.007812 C 19.59375 15.722656 20.023438 15.390625 20.417969 15.019531 C 21.195312 14.273438 21.835938 13.378906 22.25 12.382812 C 22.664062 11.394531 22.867188 10.292969 22.832031 9.234375 C 22.796875 8.707031 22.691406 8.160156 22.574219 7.621094 C 22.457031 7.078125 22.320312 6.542969 22.175781 6.003906 C 21.882812 4.933594 21.566406 3.859375 21.171875 2.828125 L 21.167969 2.824219 C 21.148438 2.761719 21.175781 2.699219 21.238281 2.675781 C 21.292969 2.65625 21.355469 2.679688 21.382812 2.730469 C 21.628906 3.242188 21.832031 3.765625 22.03125 4.292969 C 22.222656 4.820312 22.410156 5.351562 22.578125 5.886719 C 22.746094 6.425781 22.902344 6.964844 23.042969 7.511719 C 23.179688 8.0625 23.304688 8.613281 23.363281 9.195312 C 23.5 11.523438 22.542969 13.859375 20.839844 15.457031 C 20.414062 15.855469 19.945312 16.210938 19.449219 16.511719 C 19.199219 16.664062 18.9375 16.800781 18.679688 16.925781 C 18.445312 17.046875 18.214844 17.175781 18 17.332031 C 17.140625 17.949219 16.5 18.859375 16.171875 19.871094 C 16.003906 20.375 15.914062 20.90625 15.902344 21.441406 L 15.878906 23.117188 C 15.851562 24.234375 15.835938 25.351562 15.800781 26.46875 C 15.796875 26.546875 15.730469 26.609375 15.652344 26.605469 C 15.574219 26.601562 15.515625 26.542969 15.511719 26.46875 Z M 15.511719 26.46875 " fill-opacity="1" fill-rule="nonzero"/></g><g clip-path="url(#id2)"><path fill="rgb(100%, 100%, 100%)" d="M 8.953125 2.808594 C 8.621094 3.710938 8.347656 4.636719 8.070312 5.558594 C 7.808594 6.484375 7.558594 7.417969 7.390625 8.355469 C 7.351562 8.585938 7.3125 8.824219 7.292969 9.054688 C 7.265625 9.289062 7.269531 9.507812 7.277344 9.746094 C 7.292969 10.214844 7.359375 10.679688 7.460938 11.136719 C 7.671875 12.050781 8.03125 12.929688 8.550781 13.714844 C 9.0625 14.503906 9.722656 15.195312 10.488281 15.753906 C 10.871094 16.03125 11.273438 16.273438 11.703125 16.484375 C 12.160156 16.710938 12.578125 17.003906 12.945312 17.347656 C 13.679688 18.039062 14.199219 18.9375 14.457031 19.898438 C 14.589844 20.378906 14.65625 20.875 14.65625 21.371094 L 14.644531 22.820312 C 14.644531 22.898438 14.578125 22.960938 14.5 22.960938 C 14.421875 22.960938 14.359375 22.894531 14.359375 22.820312 L 14.339844 21.375 C 14.328125 20.90625 14.253906 20.4375 14.125 19.988281 C 13.863281 19.089844 13.367188 18.257812 12.675781 17.628906 C 12.332031 17.3125 11.945312 17.046875 11.523438 16.847656 C 11.078125 16.632812 10.640625 16.382812 10.234375 16.097656 C 9.421875 15.519531 8.710938 14.796875 8.160156 13.96875 C 7.609375 13.140625 7.203125 12.210938 7 11.238281 C 6.898438 10.75 6.839844 10.253906 6.828125 9.761719 C 6.820312 9.519531 6.832031 9.25 6.867188 9.007812 C 6.898438 8.757812 6.949219 8.519531 7 8.277344 C 7.207031 7.324219 7.492188 6.394531 7.792969 5.472656 C 8.097656 4.554688 8.429688 3.644531 8.8125 2.75 C 8.828125 2.710938 8.871094 2.695312 8.910156 2.710938 C 8.949219 2.726562 8.964844 2.769531 8.953125 2.804688 Z M 8.953125 2.808594 " fill-opacity="1" fill-rule="nonzero"/></g></svg>